<svg viewBox="0 0 14 24" fill="none" xmlns="http://www.w3.org/2000/svg">
<path fill-rule="evenodd" clip-rule="evenodd" d="M5.23547 2.41897C6.38414 1.27031 7.94205 0.625 9.5665 0.625H12.7165C13.1998 0.625 13.5915 1.01675 13.5915 1.5V5.7C13.5915 6.18325 13.1998 6.575 12.7165 6.575H9.5665C9.52009 6.575 9.47558 6.59344 9.44276 6.62626C9.40994 6.65908 9.3915 6.70359 9.3915 6.75V9.025H12.7165C12.9859 9.025 13.2404 9.14914 13.4062 9.36151C13.572 9.57389 13.6307 9.85082 13.5654 10.1122L12.5154 14.3122C12.418 14.7017 12.068 14.975 11.6665 14.975H9.3915V22.5C9.3915 22.9832 8.99975 23.375 8.5165 23.375H4.3165C3.83325 23.375 3.4415 22.9832 3.4415 22.5V14.975H1.1665C0.683255 14.975 0.291504 14.5832 0.291504 14.1V9.9C0.291504 9.41675 0.683255 9.025 1.1665 9.025H3.4415V6.75C3.4415 5.12555 4.08681 3.56763 5.23547 2.41897ZM9.5665 2.375C8.40618 2.375 7.29338 2.83594 6.47291 3.65641C5.65244 4.47688 5.1915 5.58968 5.1915 6.75V9.9C5.1915 10.3832 4.79975 10.775 4.3165 10.775H2.0415V13.225H4.3165C4.79975 13.225 5.1915 13.6167 5.1915 14.1V21.625H7.6415V14.1C7.6415 13.6167 8.03325 13.225 8.5165 13.225H10.9833L11.5958 10.775H8.5165C8.03325 10.775 7.6415 10.3832 7.6415 9.9V6.75C7.6415 6.23946 7.84432 5.74983 8.20532 5.38882C8.56633 5.02781 9.05596 4.825 9.5665 4.825H11.8415V2.375H9.5665Z" fill="#FAFAFC"/>
</svg>
