<svg viewBox="0 0 21 22" fill="none" xmlns="http://www.w3.org/2000/svg">
<path d="M14.9482 5.18455C14.9482 4.54219 15.446 4.02146 16.0602 4.02146C16.6744 4.02146 17.1722 4.54219 17.1722 5.18455C17.1722 5.82691 16.6744 6.34764 16.0602 6.34764C15.446 6.34764 14.9482 5.82691 14.9482 5.18455Z" fill="#FAFAFC"/>
<path fill-rule="evenodd" clip-rule="evenodd" d="M10.5 5.47532C7.58271 5.47532 5.21779 7.94881 5.21779 11C5.21779 14.0512 7.58271 16.5247 10.5 16.5247C13.4173 16.5247 15.7822 14.0512 15.7822 11C15.7822 7.94881 13.4173 5.47532 10.5 5.47532ZM6.88585 11C6.88585 8.91234 8.50395 7.21996 10.5 7.21996C12.496 7.21996 14.1141 8.91234 14.1141 11C14.1141 13.0877 12.496 14.78 10.5 14.78C8.50395 14.78 6.88585 13.0877 6.88585 11Z" fill="#FAFAFC"/>
<path fill-rule="evenodd" clip-rule="evenodd" d="M16.3474 0.337971C12.4924 -0.112657 8.50759 -0.112657 4.65261 0.337971C2.41512 0.599523 0.608795 2.44303 0.345738 4.79542C-0.115246 8.91776 -0.115246 13.0822 0.345738 17.2046C0.608795 19.557 2.41512 21.4005 4.65261 21.662C8.50759 22.1127 12.4924 22.1127 16.3474 21.662C18.5849 21.4005 20.3912 19.557 20.6543 17.2046C21.1152 13.0822 21.1152 8.91776 20.6543 4.79542C20.3912 2.44303 18.5849 0.599524 16.3474 0.337971ZM4.83789 2.07181C8.56973 1.63558 12.4303 1.63558 16.1621 2.07181C17.6412 2.24471 18.8261 3.46551 18.9975 4.99809C19.4434 8.98577 19.4434 13.0142 18.9975 17.0019C18.8261 18.5345 17.6412 19.7553 16.1621 19.9282C12.4303 20.3644 8.56973 20.3644 4.83789 19.9282C3.35876 19.7553 2.17389 18.5345 2.00251 17.0019C1.55658 13.0142 1.55658 8.98577 2.00251 4.99809C2.17389 3.46551 3.35876 2.24471 4.83789 2.07181Z" fill="#FAFAFC"/>
</svg>
