<svg viewBox="0 0 23 24" fill="none" xmlns="http://www.w3.org/2000/svg">
<path fill-rule="evenodd" clip-rule="evenodd" d="M3.08537 0C1.38137 0 0 1.44142 0 3.21951C0 4.9976 1.38137 6.43902 3.08537 6.43902C4.78937 6.43902 6.17073 4.9976 6.17073 3.21951C6.17073 1.44142 4.78937 0 3.08537 0ZM1.68293 3.21951C1.68293 2.41129 2.31082 1.7561 3.08537 1.7561C3.85991 1.7561 4.4878 2.41129 4.4878 3.21951C4.4878 4.02773 3.85991 4.68293 3.08537 4.68293C2.31082 4.68293 1.68293 4.02773 1.68293 3.21951Z" fill="#FAFAFC"/>
<path fill-rule="evenodd" clip-rule="evenodd" d="M0 7.90244C0 7.41751 0.376736 7.02439 0.841463 7.02439H5.32927C5.794 7.02439 6.17073 7.41751 6.17073 7.90244V23.122C6.17073 23.6069 5.794 24 5.32927 24H0.841463C0.376736 24 0 23.6069 0 23.122V7.90244ZM1.68293 8.78049V22.2439H4.4878V8.78049H1.68293Z" fill="#FAFAFC"/>
<path fill-rule="evenodd" clip-rule="evenodd" d="M7.85366 7.90244C7.85366 7.41751 8.23039 7.02439 8.69512 7.02439H13.1829C13.6477 7.02439 14.0244 7.41751 14.0244 7.90244V8.41056L14.5127 8.19217C15.3523 7.8167 16.2502 7.58124 17.1583 7.4951C20.2717 7.19976 23 9.75264 23 13.0305V23.122C23 23.6069 22.6233 24 22.1585 24H17.6707C17.206 24 16.8293 23.6069 16.8293 23.122V14.9268C16.8293 14.5387 16.6815 14.1665 16.4185 13.892C16.1555 13.6176 15.7988 13.4634 15.4268 13.4634C15.0549 13.4634 14.6982 13.6176 14.4352 13.892C14.1721 14.1665 14.0244 14.5387 14.0244 14.9268V23.122C14.0244 23.6069 13.6477 24 13.1829 24H8.69512C8.23039 24 7.85366 23.6069 7.85366 23.122V7.90244ZM9.53659 8.78049V22.2439H12.3415V14.9268C12.3415 14.073 12.6665 13.2541 13.2451 12.6503C13.8238 12.0465 14.6085 11.7073 15.4268 11.7073C16.2451 11.7073 17.0299 12.0465 17.6085 12.6503C18.1871 13.2541 18.5122 14.073 18.5122 14.9268V22.2439H21.3171V13.0305C21.3171 10.801 19.4536 9.04071 17.3107 9.24399C16.5769 9.3136 15.8514 9.50408 15.1757 9.80628L13.5144 10.5492C13.2544 10.6655 12.9558 10.6377 12.7197 10.4752C12.4836 10.3127 12.3415 10.0373 12.3415 9.74216V8.78049H9.53659Z" fill="#FAFAFC"/>
</svg>
