<svg width="15" height="15" viewBox="0 0 15 15" fill="none" xmlns="http://www.w3.org/2000/svg">
<path d="M5.08374 9.25488C6.6543 9.25488 7.92749 7.98169 7.92749 6.41113C7.92749 4.84057 6.6543 3.56738 5.08374 3.56738C3.51318 3.56738 2.23999 4.84057 2.23999 6.41113C2.23999 7.98169 3.51318 9.25488 5.08374 9.25488Z" stroke="#8F9BB3" stroke-width="1.2" stroke-miterlimit="10"/>
<path d="M8.76965 3.67129C9.02104 3.60311 9.28028 3.56818 9.54075 3.56738C10.295 3.56738 11.0183 3.86699 11.5516 4.4003C12.0849 4.9336 12.3845 5.65692 12.3845 6.41113C12.3845 7.16534 12.0849 7.88866 11.5516 8.42197C11.0183 8.95527 10.295 9.25488 9.54075 9.25488" stroke="#8F9BB3" stroke-width="1.2" stroke-linecap="round" stroke-linejoin="round"/>
<path d="M1.14624 11.3001C1.59027 10.6683 2.17985 10.1525 2.86518 9.79652C3.55051 9.4405 4.31145 9.25464 5.08374 9.25464C5.85603 9.25464 6.61697 9.4405 7.3023 9.79652C7.98763 10.1525 8.57721 10.6683 9.02124 11.3001" stroke="#8F9BB3" stroke-width="1.2" stroke-linecap="round" stroke-linejoin="round"/>
<path d="M9.54077 9.25488C10.3131 9.25441 11.0742 9.44004 11.7596 9.79607C12.445 10.1521 13.0345 10.668 13.4783 11.3002" stroke="#8F9BB3" stroke-width="1.2" stroke-linecap="round" stroke-linejoin="round"/>
</svg>
