<svg viewBox="0 0 25 22" fill="none" xmlns="http://www.w3.org/2000/svg">
<path fill-rule="evenodd" clip-rule="evenodd" d="M15.8992 0.900594C16.4712 0.798998 17.1116 0.765076 17.7144 0.870825C18.7908 1.05969 19.7852 1.57854 20.5711 2.35642C21.0849 2.36847 21.5898 2.26351 22.0366 2.11387C22.4147 1.98722 22.7342 1.83431 22.958 1.7134C23.0693 1.65328 23.1552 1.60199 23.2111 1.56727C23.239 1.54994 23.2593 1.53682 23.2714 1.5289L23.2821 1.52183C23.616 1.29115 24.0606 1.33604 24.3451 1.62947C24.6296 1.92296 24.6755 2.3837 24.4547 2.73125C24.221 3.0991 23.8966 3.75484 23.5332 4.48956C23.476 4.60508 23.4179 4.72256 23.359 4.84118C23.1506 5.26113 22.9368 5.68558 22.7376 6.04974C22.6125 6.27839 22.4787 6.51052 22.3438 6.71112V7.03053C22.3524 8.20376 22.2226 9.37088 21.9593 10.5063C21.7936 11.2207 21.575 11.9226 21.3048 12.6055C20.6046 14.3749 19.5714 15.9819 18.2655 17.3327C16.9597 18.6834 15.4075 19.7507 13.6994 20.4723C11.9929 21.1933 10.1651 21.5547 8.32249 21.5356C5.65138 21.538 3.03647 20.7399 0.792412 19.2373C0.461886 19.016 0.322725 18.5872 0.456978 18.2037C0.591232 17.8201 0.963262 17.5838 1.35372 17.6339C1.69162 17.6772 2.03183 17.6984 2.37232 17.6972C3.5957 17.6937 4.79578 17.4134 5.89137 16.8853C5.54313 16.7209 5.21066 16.5182 4.89998 16.2793C3.9868 15.5771 3.3074 14.5971 2.95633 13.4758C2.8651 13.1844 2.92746 12.8648 3.12075 12.6331C3.12421 12.6289 3.12771 12.6248 3.13124 12.6207C2.92477 12.4298 2.73158 12.2219 2.55372 11.9984C1.75348 10.9925 1.31285 9.73079 1.30635 8.42676L1.30632 8.42224L1.30633 8.36391C1.30633 8.05373 1.46468 7.76674 1.72253 7.60956C1.7879 7.56972 1.85718 7.53973 1.92845 7.51961C1.54782 6.73202 1.34989 5.86233 1.35133 4.98003C1.35088 3.98047 1.60266 2.99817 2.08164 2.13075C2.21991 1.88035 2.46834 1.71674 2.74569 1.69343C3.02303 1.67013 3.29363 1.79012 3.46897 2.01418C4.55185 3.39786 5.9033 4.52982 7.43553 5.33654C8.22318 5.75123 9.04955 6.07521 9.89983 6.30438C10.3765 6.43287 10.8607 6.53155 11.3499 6.59972C11.3283 5.75592 11.489 4.91257 11.8262 4.13332C12.3208 2.99019 13.1674 2.04965 14.233 1.45921C14.6843 1.20916 15.2834 1.00999 15.8992 0.900594ZM3.21127 9.706C3.35712 10.1317 3.5741 10.5311 3.85541 10.8847C4.40815 11.5795 5.17534 12.055 6.02721 12.2307C6.40665 12.309 6.68615 12.6449 6.7053 13.0456C6.72445 13.4463 6.47836 13.8092 6.10824 13.926C5.80168 14.0227 5.48761 14.0902 5.16996 14.1276C5.37986 14.4082 5.62677 14.6595 5.90511 14.8736C6.53644 15.3591 7.298 15.6284 8.08382 15.6441C8.44036 15.6512 8.75408 15.89 8.86751 16.2406C8.98094 16.5912 8.86958 16.9779 8.58934 17.2066C7.40903 18.1697 6.04417 18.8413 4.59793 19.1841C5.7966 19.5822 7.05373 19.7872 8.3253 19.7856L8.3351 19.7856C9.95516 19.803 11.5623 19.4856 13.0628 18.8517C14.5632 18.2178 15.9267 17.2802 17.0738 16.0936C18.2209 14.9071 19.1285 13.4954 19.7436 11.9411C19.981 11.3412 20.173 10.7246 20.3186 10.0971C20.5502 9.09867 20.6641 8.07239 20.6564 7.04075L20.6563 7.0339V6.41557C20.6563 6.20341 20.7307 5.99847 20.8655 5.83891C20.9434 5.74669 21.0797 5.53371 21.2699 5.18616C21.4506 4.85584 21.6506 4.45929 21.8586 4.04024C21.8712 4.0149 21.8838 3.98942 21.8965 3.96383C21.357 4.08533 20.7455 4.14902 20.1044 4.07717C19.9014 4.05442 19.7132 3.95608 19.5748 3.8004C19.0091 3.16418 18.2557 2.74067 17.4329 2.59631C17.0678 2.53225 16.6264 2.54691 16.1841 2.62547C15.7036 2.71083 15.2855 2.86018 15.0282 3.00271C14.2922 3.41054 13.7074 4.0602 13.3658 4.84978C13.0241 5.63936 12.9448 6.52422 13.1403 7.36557C13.2027 7.6338 13.1394 7.91681 12.9695 8.12917C12.7997 8.34154 12.5432 8.45839 12.2775 8.44445C11.3286 8.39468 10.3898 8.24459 9.47534 7.99811C8.50795 7.73737 7.56776 7.36877 6.67161 6.89695C5.35223 6.20231 4.15067 5.2957 3.11023 4.21339C3.06277 4.46494 3.03867 4.72164 3.03883 4.97999L3.03883 4.98223C3.03766 5.62474 3.1897 6.25757 3.48142 6.8244C3.77315 7.39122 4.1955 7.87445 4.71087 8.23104C5.02365 8.44746 5.16059 8.85238 5.04668 9.22399C4.93277 9.59559 4.5955 9.84419 4.21964 9.83358C3.87922 9.82398 3.54165 9.78104 3.21127 9.706Z" fill="#FAFAFC"/>
</svg>
