<svg viewBox="0 0 26 18" fill="none" xmlns="http://www.w3.org/2000/svg">
<path fill-rule="evenodd" clip-rule="evenodd" d="M11.1168 4.74965C10.8465 4.58746 10.5099 4.58321 10.2355 4.73853C9.96122 4.89385 9.79165 5.18472 9.79165 5.49995V12.5C9.79165 12.8152 9.96122 13.1061 10.2355 13.2614C10.5099 13.4167 10.8465 13.4124 11.1168 13.2503L16.9502 9.75026C17.2137 9.59213 17.375 9.30731 17.375 8.99995C17.375 8.6926 17.2137 8.40778 16.9502 8.24965L11.1168 4.74965ZM14.7993 8.99995L11.5416 10.9545V7.04537L14.7993 8.99995Z" fill="#FAFAFC"/>
<path fill-rule="evenodd" clip-rule="evenodd" d="M18.8691 0.414782C14.9623 0.109135 11.0377 0.109135 7.13093 0.414782L4.51678 0.619301C2.92711 0.743668 1.62665 1.93507 1.36387 3.50779C0.756314 7.14403 0.756314 10.8559 1.36387 14.4921C1.62665 16.0648 2.92711 17.2562 4.51678 17.3806L7.13093 17.5851C11.0377 17.8908 14.9623 17.8908 18.8691 17.5851L21.4833 17.3806C23.0729 17.2562 24.3734 16.0648 24.6362 14.4921C25.2437 10.8559 25.2437 7.14403 24.6362 3.50779C24.3734 1.93507 23.0729 0.743668 21.4833 0.6193L18.8691 0.414782ZM7.26742 2.15945C11.0833 1.86091 14.9167 1.86091 18.7326 2.15945L21.3468 2.36397C22.135 2.42564 22.7798 3.01638 22.9101 3.79619C23.4857 7.24148 23.4857 10.7584 22.9101 14.2037C22.7798 14.9835 22.135 15.5743 21.3468 15.6359L18.7326 15.8405C14.9167 16.139 11.0833 16.139 7.26742 15.8405L4.65327 15.6359C3.86506 15.5743 3.22024 14.9835 3.08994 14.2037C2.51429 10.7584 2.51429 7.24148 3.08994 3.79619C3.22024 3.01638 3.86506 2.42564 4.65327 2.36397L7.26742 2.15945Z" fill="#FAFAFC"/>
</svg>
