<svg width="150" height="40" viewBox="0 0 150 40" fill="none" xmlns="http://www.w3.org/2000/svg">
<mask id="mask0_10_113" style="mask-type:alpha" maskUnits="userSpaceOnUse" x="17" y="9" width="119" height="24">
<path d="M17.656 32V9.6H21.944L31.48 25.408H29.208L38.584 9.6H42.84L42.904 32H38.04L38.008 17.056H38.904L31.416 29.632H29.08L21.432 17.056H22.52V32H17.656ZM48.2185 32V9.6H53.4025V32H48.2185ZM58.7185 32V9.6H63.0065L76.2225 25.728H74.1425V9.6H79.2625V32H75.0065L61.7585 15.872H63.8385V32H58.7185ZM84.5623 32V9.6H89.7463V32H84.5623ZM105.782 32.384C104.054 32.384 102.444 32.1067 100.95 31.552C99.4783 30.976 98.1983 30.1653 97.1102 29.12C96.0223 28.0747 95.1689 26.848 94.5503 25.44C93.9529 24.032 93.6543 22.4853 93.6543 20.8C93.6543 19.1147 93.9529 17.568 94.5503 16.16C95.1689 14.752 96.0223 13.5253 97.1102 12.48C98.2196 11.4347 99.5103 10.6347 100.982 10.08C102.454 9.504 104.065 9.216 105.814 9.216C107.756 9.216 109.505 9.55733 111.062 10.24C112.641 10.9013 113.964 11.8827 115.03 13.184L111.702 16.256C110.934 15.3813 110.081 14.7307 109.142 14.304C108.204 13.856 107.18 13.632 106.07 13.632C105.025 13.632 104.065 13.8027 103.19 14.144C102.316 14.4853 101.558 14.976 100.918 15.616C100.278 16.256 99.7769 17.0133 99.4143 17.888C99.0729 18.7627 98.9023 19.7333 98.9023 20.8C98.9023 21.8667 99.0729 22.8373 99.4143 23.712C99.7769 24.5867 100.278 25.344 100.918 25.984C101.558 26.624 102.316 27.1147 103.19 27.456C104.065 27.7973 105.025 27.968 106.07 27.968C107.18 27.968 108.204 27.7547 109.142 27.328C110.081 26.88 110.934 26.208 111.702 25.312L115.03 28.384C113.964 29.6853 112.641 30.6773 111.062 31.36C109.505 32.0427 107.745 32.384 105.782 32.384ZM122.952 32V13.824H115.784V9.6H135.304V13.824H128.136V32H122.952Z" fill="white"/>
</mask>
<g mask="url(#mask0_10_113)">
<rect width="150" height="40" fill="white"/>
</g>
</svg>
