<svg width="121" height="120" viewBox="0 0 121 120" fill="none" xmlns="http://www.w3.org/2000/svg">
<path d="M78.5553 45.7546C78.6841 45.7546 78.7393 45.6258 78.7393 45.5705C78.7393 45.4601 78.6105 45.3313 78.5553 45.3865L77.543 45.4969V45.681C77.9295 45.5705 78.2424 45.681 78.5553 45.7546Z" fill="#1A182B"/>
<path d="M78.1504 46.3436C78.2792 46.3436 78.3344 46.2147 78.3344 46.1595C78.3344 46.0491 78.2792 45.9755 78.1504 45.9755L77.1381 46.1595V46.3436C77.5246 46.1963 77.8191 46.2883 78.1504 46.3436Z" fill="#1A182B"/>
<path d="M77.7823 46.9509C77.9111 46.9509 77.9663 46.822 77.9663 46.7668C77.9663 46.638 77.8375 46.5828 77.7271 46.5828L76.7148 46.822L76.77 46.9509C77.1749 46.7852 77.4694 46.8956 77.7823 46.9509Z" fill="#1A182B"/>
<path d="M77.359 47.6135C77.4878 47.6135 77.543 47.5582 77.543 47.4294C77.4878 47.3006 77.4142 47.2454 77.3037 47.2454L76.2915 47.5398L76.3467 47.6687C76.6964 47.5582 77.0645 47.5951 77.359 47.6135Z" fill="#1A182B"/>
<path d="M77.0093 48.2576C77.0645 48.2576 77.1381 48.1472 77.1381 48.0184C77.1381 47.9631 77.0093 47.8895 76.8989 47.8895L75.9418 48.3128L75.997 48.4417C76.3467 48.2944 76.678 48.2392 77.0093 48.2576Z" fill="#1A182B"/>
<path d="M76.5308 49.0491C76.586 49.0491 76.6596 48.9203 76.6596 48.8651C76.6596 48.7546 76.5308 48.681 76.4203 48.681L75.4633 49.1043L75.5185 49.2332C75.8682 49.0675 76.1995 49.0123 76.5308 49.0491Z" fill="#1A182B"/>
<path d="M76.2179 49.7669C76.3467 49.7669 76.4019 49.6381 76.3467 49.5277C76.3467 49.4725 76.2179 49.4172 76.1074 49.4172L75.1504 49.7853L75.2056 49.9694C75.5737 49.7853 75.8866 49.7301 76.2179 49.7669Z" fill="#1A182B"/>
<path d="M75.9786 50.4846C76.1075 50.4294 76.1627 50.3558 76.1075 50.2454C76.1075 50.1165 75.9786 50.0613 75.8682 50.1165L74.9111 50.4846L74.9664 50.5951C75.3344 50.4846 75.6289 50.4478 75.9786 50.4846Z" fill="#1A182B"/>
<path d="M75.7394 51.1472C75.7946 51.092 75.8682 50.9631 75.7946 50.8527C75.7946 50.7975 75.6841 50.7239 75.5553 50.7239L74.6535 51.2024L74.7087 51.3312C75.0952 51.1656 75.3897 51.1104 75.7394 51.1472Z" fill="#1A182B"/>
<path d="M75.4449 51.9202C75.5737 51.9202 75.6289 51.8097 75.5737 51.6809C75.5737 51.6257 75.4449 51.5521 75.3345 51.6257L74.4326 52.1042L74.4878 52.2147C74.8007 52.049 75.1504 51.9938 75.4449 51.9202Z" fill="#1A182B"/>
<path d="M75.2056 52.7669C75.3344 52.7669 75.3896 52.6381 75.3344 52.5276C75.2792 52.4724 75.2056 52.3988 75.0952 52.3988L74.1933 52.9325L74.2485 53.0614C74.5614 52.8957 74.9111 52.8221 75.2056 52.7669Z" fill="#1A182B"/>
<path d="M79.1074 45.1473C79.1627 45.1473 79.2915 45.0921 79.2915 44.9632C79.2915 44.8344 79.1626 44.7792 79.0522 44.7792L78.0399 44.9632V45.0921C78.4449 44.9632 78.7761 45.0921 79.1074 45.1473Z" fill="#1A182B"/>
<path d="M79.586 44.5583C79.6412 44.5583 79.77 44.5031 79.77 44.3742C79.7148 44.2454 79.6412 44.1902 79.5308 44.1902L78.5185 44.3742V44.5031C78.905 44.4294 79.2363 44.4294 79.586 44.5583Z" fill="#1A182B"/>
<path d="M80.1197 44.0061C80.2486 44.0061 80.3038 43.8772 80.3038 43.7668C80.3038 43.7116 80.2486 43.5828 80.1197 43.5828L79.1075 43.7668V43.8772C79.494 43.8036 79.8068 43.9325 80.1197 44.0061Z" fill="#1A182B"/>
<path d="M80.543 43.3436C80.6719 43.2884 80.7271 43.2148 80.7271 43.1043C80.7271 42.9755 80.5982 42.9203 80.4878 42.9203L79.5308 43.2148V43.3988C79.8989 43.2148 80.2117 43.3068 80.543 43.3436Z" fill="#1A182B"/>
<path d="M79.2179 42.5153C79.2179 42.4049 79.089 42.3313 78.9786 42.4049C78.8498 42.4049 78.7946 42.5153 78.8498 42.6441L79.2179 43.6012L79.3467 43.546C79.1995 43.1779 79.2179 42.8466 79.2179 42.5153Z" fill="#1A182B"/>
<path d="M78.6841 42.9386C78.6841 42.8834 78.5553 42.8098 78.4449 42.8098C78.3897 42.8098 78.316 42.9386 78.316 43.0491L78.6841 44.0061H78.813C78.6841 43.638 78.6473 43.2699 78.6841 42.9386Z" fill="#1A182B"/>
<path d="M78.1504 43.4723C78.1504 43.3619 78.0216 43.2883 77.9111 43.3619C77.7823 43.3619 77.7271 43.4723 77.7823 43.6012L78.2608 44.7423H78.3897C78.1872 44.3006 78.1688 43.8588 78.1504 43.4723Z" fill="#1A182B"/>
<path d="M77.6719 44.0062C77.6166 43.8774 77.4878 43.8221 77.4326 43.8221C77.3038 43.8774 77.2486 43.951 77.2486 44.0614L77.7271 45.2577L77.8559 45.2025C77.5982 44.7976 77.6535 44.3743 77.6719 44.0062Z" fill="#1A182B"/>
<path d="M77.1933 44.4847C77.1933 44.3558 77.0645 44.3558 76.9541 44.3558C76.8988 44.411 76.8252 44.4847 76.8252 44.5951L77.359 45.7362H77.4878C77.3037 45.3129 77.1565 44.908 77.1933 44.4847Z" fill="#1A182B"/>
<path d="M76.6412 45.1473C76.586 45.0921 76.5124 45.0369 76.4019 45.0369C76.2731 45.0921 76.2179 45.2209 76.2731 45.3313L76.8068 46.4724L76.9357 46.4172C76.7516 45.9755 76.6228 45.589 76.6412 45.1473Z" fill="#1A182B"/>
<path d="M76.1627 45.8651C76.1627 45.7546 76.0338 45.7546 75.9234 45.7546C75.8682 45.8099 75.7946 45.9387 75.7946 45.9939L76.3283 47.135L76.4572 47.0798C76.2731 46.6565 76.1443 46.27 76.1627 45.8651Z" fill="#1A182B"/>
<path d="M75.7393 46.4724C75.7393 46.4172 75.6105 46.3436 75.5001 46.4172C75.4449 46.4172 75.3897 46.5276 75.4449 46.6565L76.0522 47.7424L76.1811 47.6871C75.9602 47.2638 75.7946 46.8773 75.7393 46.4724Z" fill="#1A182B"/>
<path d="M75.4265 47.1166C75.3713 46.9878 75.2424 46.9878 75.1872 46.9878C75.0768 47.043 75.0032 47.1718 75.0768 47.2823L75.6841 48.3682L75.8682 48.3129C75.5921 47.908 75.4081 47.5399 75.4265 47.1166Z" fill="#1A182B"/>
<path d="M74.9664 47.7791C74.9111 47.7239 74.7823 47.6687 74.7271 47.7239C74.5983 47.7791 74.5983 47.908 74.6719 48.0184L75.3897 49.0307L75.5001 48.9755C75.2608 48.589 75.04 48.2025 74.9664 47.7791Z" fill="#1A182B"/>
<path d="M74.6719 48.5153C74.6166 48.4601 74.4878 48.4049 74.4326 48.4601C74.3038 48.5153 74.2485 48.6442 74.3038 48.6994L75.0215 49.7853L75.1504 49.7301C74.9111 49.3068 74.7271 48.9203 74.6719 48.5153Z" fill="#1A182B"/>
<path d="M74.3774 49.0491C74.3222 48.9939 74.1933 48.9202 74.1381 48.9939C74.0093 49.0491 74.0093 49.1779 74.0829 49.2883L74.8559 50.2454L74.9848 50.1902C74.6719 49.8037 74.451 49.454 74.3774 49.0491Z" fill="#1A182B"/>
<path d="M74.0645 49.638C74.0093 49.5092 73.8804 49.5092 73.8252 49.5828C73.6964 49.638 73.6964 49.7669 73.77 49.8221L74.6166 50.7791L74.7455 50.7239C74.3958 50.411 74.2301 49.9877 74.0645 49.638Z" fill="#1A182B"/>
<path d="M73.8805 50.2454C73.8253 50.1902 73.6964 50.1902 73.6412 50.2454C73.5124 50.3006 73.5124 50.4294 73.586 50.4847L74.359 51.4417L74.4878 51.3865C74.1934 51 73.9725 50.6687 73.8805 50.2454Z" fill="#1A182B"/>
<path d="M73.586 51.092C73.5308 50.9632 73.4019 50.9632 73.2915 51.0368C73.2363 51.092 73.2363 51.2209 73.2915 51.3313L74.1381 52.2331L74.267 52.1227C73.9173 51.8098 73.7516 51.4049 73.586 51.092Z" fill="#1A182B"/>
<path d="M73.3467 51.8098C73.2915 51.7546 73.1627 51.7546 73.1074 51.8098C73.0522 51.8651 72.9786 51.9939 73.0522 52.0491L73.9541 53.0062L74.0829 52.8773C73.77 52.546 73.5123 52.2148 73.3467 51.8098Z" fill="#1A182B"/>
<path d="M73.1627 52.7669C73.0338 52.7117 72.9234 52.6381 72.8682 52.7669C72.813 52.8221 72.813 52.9509 72.8682 53.0062L73.77 53.908L73.8805 53.7792C73.5492 53.4479 73.2547 53.1718 73.1627 52.7669Z" fill="#1A182B"/>
<path d="M73.0522 53.7791C72.997 53.7239 72.8682 53.6687 72.7578 53.7791C72.7025 53.8343 72.7025 53.9631 72.7578 54.0184L73.6596 54.9202L73.7884 54.8098C73.4203 54.5153 73.2179 54.092 73.0522 53.7791Z" fill="#1A182B"/>
<path d="M72.8682 54.9202C72.813 54.865 72.6841 54.865 72.5737 54.9202C72.5185 54.9754 72.5185 55.1042 72.5737 55.1595L73.4755 56.0613L73.586 56.0061C73.2547 55.638 72.9602 55.3435 72.8682 54.9202Z" fill="#1A182B"/>
<path d="M72.7578 56.0613C72.7026 56.0061 72.5737 55.9325 72.5185 56.0613C72.4633 56.1166 72.4081 56.2454 72.5185 56.3006L73.4203 57.1472L73.5492 57.092C73.1995 56.7607 72.9234 56.4478 72.7578 56.0613Z" fill="#1A182B"/>
<path d="M72.7578 57.2025C72.6289 57.0737 72.5185 57.0737 72.4633 57.1473C72.4081 57.2577 72.4081 57.3865 72.4633 57.4418L73.4203 58.2148L73.5492 58.1595C73.1443 57.9019 72.9418 57.5154 72.7578 57.2025Z" fill="#1A182B"/>
<path d="M72.6841 58.2148C72.5553 58.1595 72.4449 58.1595 72.3897 58.2148C72.3344 58.3252 72.3344 58.454 72.4449 58.5092L73.5308 59.1718L73.586 59.043C73.1995 58.8405 72.9418 58.5092 72.6841 58.2148Z" fill="#1A182B"/>
<path d="M72.7577 59.3006C72.6289 59.2454 72.5185 59.3006 72.4633 59.3558C72.4081 59.4662 72.4633 59.5951 72.5185 59.6503L73.6596 60.184L73.7148 60.0736C73.2731 59.8527 72.9418 59.6871 72.7577 59.3006Z" fill="#1A182B"/>
<path d="M72.8682 60.3681C72.7394 60.3129 72.6289 60.3681 72.5737 60.4233C72.5185 60.5521 72.5737 60.6626 72.6289 60.7178L73.77 61.2515L73.8252 61.1411C73.4019 60.9386 73.0706 60.7546 72.8682 60.3681Z" fill="#1A182B"/>
<path d="M72.997 61.454C72.8682 61.3988 72.7578 61.454 72.7025 61.5092C72.7025 61.6381 72.7025 61.7485 72.8314 61.7485L74.0277 62.1718L74.0829 62.0614C73.6596 61.8957 73.2547 61.7301 72.997 61.454Z" fill="#1A182B"/>
<path d="M73.1074 62.3006C72.9786 62.2454 72.8682 62.3006 72.8682 62.4295C72.813 62.4847 72.8682 62.6135 72.9234 62.6687L74.1197 63.092L74.1749 62.9632C73.77 62.7791 73.4019 62.5951 73.1074 62.3006Z" fill="#1A182B"/>
<path d="M73.2915 63.0737C73.1627 63.0184 73.1074 63.0737 73.0522 63.1841C72.997 63.2393 73.0522 63.3681 73.1074 63.4234L74.3038 63.8467L74.359 63.7178C73.9541 63.5522 73.586 63.3865 73.2915 63.0737Z" fill="#1A182B"/>
<path d="M73.4755 63.7362C73.3467 63.681 73.2363 63.7363 73.1811 63.7915C73.1811 63.9203 73.1811 64.0307 73.2363 64.0859L74.6166 64.8037L74.7455 64.6749C74.267 64.3988 73.7516 64.1412 73.4755 63.7362Z" fill="#1A182B"/>
<path d="M75.0216 53.6688C75.1504 53.6135 75.1504 53.4847 75.1504 53.3743C75.0952 53.3191 74.9663 53.2454 74.8559 53.3191L73.77 53.9816L73.8252 54.1105C74.2117 53.7976 74.6535 53.7424 75.0216 53.6688Z" fill="#1A182B"/>
<path d="M74.8559 54.5521C74.9111 54.4969 74.9848 54.3681 74.9111 54.3128C74.8559 54.184 74.7271 54.184 74.6719 54.2576L73.6596 55.0306L73.7148 55.1411C74.0829 54.865 74.4326 54.6441 74.8559 54.5521Z" fill="#1A182B"/>
<path d="M74.7823 55.5829C74.9111 55.5277 74.9111 55.3988 74.8375 55.3436C74.7823 55.2148 74.6535 55.2148 74.5982 55.2884L73.586 56.0614L73.6412 56.1718C74.0277 55.8958 74.3774 55.6565 74.7823 55.5829Z" fill="#1A182B"/>
<path d="M74.6719 56.595C74.8007 56.5398 74.8007 56.411 74.7271 56.3006C74.6719 56.2454 74.543 56.2454 74.4326 56.3006L73.5308 57.1472L73.586 57.2576C73.9173 56.9263 74.3406 56.7607 74.6719 56.595Z" fill="#1A182B"/>
<path d="M74.6167 57.6257C74.7455 57.5705 74.7455 57.4417 74.6719 57.3865C74.6167 57.2576 74.4878 57.2576 74.4326 57.3312L73.4756 58.2331L73.6044 58.3619C73.8989 58.049 74.267 57.8282 74.6167 57.6257Z" fill="#1A182B"/>
<path d="M74.6719 58.5092C74.8007 58.454 74.8007 58.3252 74.6719 58.2148C74.6166 58.1595 74.4878 58.1595 74.4326 58.2148L73.586 59.1718L73.6964 59.3006C73.9725 58.9141 74.359 58.6933 74.6719 58.5092Z" fill="#1A182B"/>
<path d="M74.7271 59.3558C74.7823 59.3006 74.7823 59.1717 74.7271 59.0613C74.6719 59.0061 74.543 59.0061 74.4878 59.0613L73.6412 60.0184L73.6964 60.1472C74.0461 59.7607 74.3038 59.4662 74.7271 59.3558Z" fill="#1A182B"/>
<path d="M74.7823 60.3129C74.8375 60.2577 74.8375 60.1289 74.7823 60.0736C74.7271 59.9632 74.5982 60.0184 74.4878 60.0736L73.77 61.0859L73.8805 61.1411C74.1381 60.7914 74.4878 60.5522 74.7823 60.3129Z" fill="#1A182B"/>
<path d="M74.9664 61.1595C75.0216 61.0306 75.0216 60.9202 74.9664 60.865C74.8375 60.8098 74.7271 60.8098 74.6719 60.9202L74.0093 62.0061L74.1381 62.0613C74.3406 61.6748 74.6903 61.3987 74.9664 61.1595Z" fill="#1A182B"/>
<path d="M75.4449 63.0737C75.5001 62.9448 75.5001 62.8344 75.3897 62.7792C75.3344 62.724 75.2056 62.724 75.1504 62.8344L74.4878 63.9203L74.6167 63.9755C74.8559 63.5706 75.0768 63.2577 75.4449 63.0737Z" fill="#1A182B"/>
<path d="M75.8682 63.9754C75.9234 63.8466 75.8682 63.7362 75.813 63.681C75.6841 63.6257 75.5737 63.6809 75.5185 63.7362L74.9111 64.9877L75.04 65.0429C75.2608 64.5828 75.4633 64.1963 75.8682 63.9754Z" fill="#1A182B"/>
<path d="M75.2056 61.9878C75.2608 61.8589 75.2056 61.7485 75.1504 61.6933C75.0215 61.6381 74.9111 61.6933 74.9111 61.7485L74.2485 63L74.3774 63.0552C74.5614 62.6319 74.9111 62.2822 75.2056 61.9878Z" fill="#1A182B"/>
<path d="M80.0093 42.5706C76.4203 46.1043 74.1381 50.3559 73.4756 54.9755C72.813 59.6503 73.8437 64.3804 76.4203 68.6503C76.4756 68.7608 76.6044 68.7608 76.7148 68.7056C76.8252 68.6503 76.8252 68.5215 76.77 68.4663C74.2486 64.27 73.2363 59.6503 73.8989 55.0307C74.5614 50.5399 76.7148 46.27 80.2486 42.8651C80.3774 42.8098 80.3774 42.681 80.2486 42.5706C80.1749 42.5154 80.0645 42.5154 80.0093 42.5706Z" fill="#1A182B"/>
<path d="M108.169 45.7546C108.04 45.7546 107.985 45.6258 107.985 45.5705C107.985 45.4601 108.04 45.3313 108.169 45.3865L109.181 45.4969V45.681C108.795 45.5705 108.5 45.681 108.169 45.7546Z" fill="#1A182B"/>
<path d="M108.592 46.3436C108.463 46.3436 108.408 46.2147 108.408 46.1595C108.408 46.0491 108.463 45.9755 108.592 45.9755L109.604 46.1595V46.3436C109.218 46.1963 108.905 46.2883 108.592 46.3436Z" fill="#1A182B"/>
<path d="M108.942 46.9509C108.813 46.9509 108.758 46.822 108.758 46.7668C108.758 46.638 108.887 46.5828 108.997 46.5828L110.009 46.822L109.954 46.9509C109.568 46.7852 109.273 46.8956 108.942 46.9509Z" fill="#1A182B"/>
<path d="M109.365 47.6135C109.236 47.6135 109.181 47.5582 109.181 47.4294C109.236 47.3006 109.31 47.2454 109.42 47.2454L110.433 47.5398L110.377 47.6687C110.028 47.5582 109.66 47.5951 109.365 47.6135Z" fill="#1A182B"/>
<path d="M109.733 48.2576C109.678 48.2576 109.549 48.1472 109.604 48.0184C109.604 47.9631 109.733 47.8895 109.844 47.8895L110.801 48.3128L110.745 48.4417C110.377 48.2944 110.065 48.2392 109.733 48.2576Z" fill="#1A182B"/>
<path d="M110.212 49.0491C110.157 49.0491 110.028 48.9203 110.083 48.8651C110.083 48.7546 110.212 48.681 110.322 48.681L111.279 49.1043L111.224 49.2332C110.856 49.0675 110.543 49.0123 110.212 49.0491Z" fill="#1A182B"/>
<path d="M110.506 49.7669C110.377 49.7669 110.322 49.6381 110.377 49.5277C110.377 49.4725 110.506 49.4172 110.617 49.4172L111.574 49.7853L111.519 49.9694C111.169 49.7853 110.838 49.7301 110.506 49.7669Z" fill="#1A182B"/>
<path d="M110.745 50.4846C110.617 50.4294 110.561 50.3558 110.617 50.2454C110.617 50.1165 110.745 50.0613 110.856 50.1165L111.813 50.4846L111.758 50.5951C111.408 50.4846 111.095 50.4478 110.745 50.4846Z" fill="#1A182B"/>
<path d="M110.985 51.1472C110.93 51.092 110.874 50.9631 110.93 50.8527C110.93 50.7975 111.04 50.7239 111.169 50.7239L112.071 51.2024L112.015 51.3312C111.647 51.1656 111.353 51.1104 110.985 51.1472Z" fill="#1A182B"/>
<path d="M111.224 51.9202C111.169 51.9202 111.095 51.8097 111.169 51.6809C111.169 51.6257 111.298 51.5521 111.408 51.6257L112.31 52.1042L112.255 52.2147C111.905 52.0674 111.574 51.957 111.224 51.9202Z" fill="#1A182B"/>
<path d="M111.574 52.8221C111.445 52.8221 111.353 52.638 111.408 52.5092C111.463 52.454 111.537 52.3804 111.647 52.3804L112.549 52.9141L112.494 53.0429C112.181 52.8957 111.868 52.8957 111.574 52.8221Z" fill="#1A182B"/>
<path d="M107.635 45.1473C107.58 45.1473 107.451 45.0921 107.451 44.9632C107.451 44.8344 107.58 44.7792 107.69 44.7792L108.703 44.9632V45.0921C108.279 44.9632 107.966 45.0921 107.635 45.1473Z" fill="#1A182B"/>
<path d="M107.157 44.5583C107.101 44.5583 106.972 44.5031 106.972 44.3742C106.972 44.2454 107.101 44.1902 107.212 44.1902L108.224 44.3742V44.5031C107.801 44.3742 107.469 44.4847 107.157 44.5583Z" fill="#1A182B"/>
<path d="M106.604 44.0061C106.476 44.0061 106.365 43.8772 106.42 43.7668C106.42 43.7116 106.476 43.5828 106.604 43.5828L107.617 43.7668V43.8772C107.249 43.8036 106.936 43.9325 106.604 44.0061Z" fill="#1A182B"/>
<path d="M106.199 43.3436C106.071 43.2884 106.015 43.2148 106.015 43.1043C106.015 42.9755 106.144 42.9203 106.255 42.9203L107.212 43.2148V43.3988C106.825 43.2148 106.512 43.3068 106.199 43.3436Z" fill="#1A182B"/>
<path d="M107.175 42.6258C107.138 42.5154 107.249 42.4233 107.377 42.4601C107.488 42.4233 107.58 42.5338 107.543 42.6626L107.414 43.6749L107.285 43.6381C107.359 43.27 107.249 42.9571 107.175 42.6258Z" fill="#1A182B"/>
<path d="M108.058 42.9386C108.058 42.8834 108.187 42.8098 108.298 42.8098C108.353 42.8098 108.426 42.9386 108.426 43.0491L108.058 44.0061H107.93C108.04 43.638 108.095 43.2699 108.058 42.9386Z" fill="#1A182B"/>
<path d="M108.592 43.4723C108.592 43.3619 108.721 43.2883 108.831 43.3619C108.96 43.3619 108.96 43.4723 108.96 43.6012L108.482 44.7423H108.353C108.555 44.3006 108.555 43.8404 108.592 43.4723Z" fill="#1A182B"/>
<path d="M109.071 44.0062C109.126 43.8774 109.199 43.8221 109.31 43.8221C109.439 43.8774 109.494 43.951 109.494 44.0614L109.015 45.2577L108.887 45.2025C109.126 44.7792 109.071 44.3743 109.071 44.0062Z" fill="#1A182B"/>
<path d="M109.549 44.4847C109.549 44.3558 109.678 44.3558 109.788 44.3558C109.844 44.411 109.917 44.4847 109.917 44.5951L109.384 45.7362H109.255C109.439 45.3129 109.568 44.908 109.549 44.4847Z" fill="#1A182B"/>
<path d="M110.083 45.1473C110.138 45.0921 110.212 45.0369 110.322 45.0369C110.451 45.0921 110.506 45.2209 110.451 45.3313C110.396 45.3866 110.322 45.4418 110.267 45.4418L109.899 46.454L109.77 46.3988L110.138 45.3866C110.083 45.3313 110.028 45.2761 110.083 45.1473Z" fill="#1A182B"/>
<path d="M110.561 45.8651C110.561 45.7546 110.69 45.7546 110.801 45.7546C110.856 45.8099 110.93 45.9387 110.93 45.9939L110.396 47.135L110.212 47.0798C110.433 46.6565 110.58 46.27 110.561 45.8651Z" fill="#1A182B"/>
<path d="M110.985 46.4724C110.985 46.4172 111.114 46.3436 111.224 46.4172C111.279 46.4172 111.334 46.5276 111.279 46.6565L110.672 47.7424L110.561 47.6687C110.764 47.2638 110.93 46.8773 110.985 46.4724Z" fill="#1A182B"/>
<path d="M111.408 47.2454C111.463 47.135 111.592 47.135 111.647 47.135C111.776 47.1902 111.831 47.3191 111.776 47.4295L111.169 48.5154L110.985 48.4602C111.242 48.0368 111.426 47.6688 111.408 47.2454Z" fill="#1A182B"/>
<path d="M111.758 47.7791C111.813 47.7239 111.942 47.6687 111.997 47.7239C112.126 47.7791 112.126 47.908 112.052 48.0184L111.334 49.0307L111.224 48.9755C111.482 48.589 111.703 48.2025 111.758 47.7791Z" fill="#1A182B"/>
<path d="M112.071 48.5153C112.126 48.4601 112.255 48.4049 112.31 48.4601C112.42 48.5153 112.42 48.6442 112.42 48.6994L111.703 49.7853L111.574 49.7301C111.813 49.3068 111.997 48.9203 112.071 48.5153Z" fill="#1A182B"/>
<path d="M112.365 49.0491C112.42 48.9939 112.549 48.9202 112.604 48.9939C112.733 49.0491 112.733 49.1779 112.66 49.2883L111.887 50.2454L111.758 50.1902C112.052 49.8037 112.291 49.454 112.365 49.0491Z" fill="#1A182B"/>
<path d="M112.66 49.638C112.715 49.5092 112.844 49.5092 112.899 49.5828C113.009 49.638 113.009 49.7669 112.954 49.8221L112.107 50.7791L111.979 50.7239C112.328 50.411 112.512 49.9877 112.66 49.638Z" fill="#1A182B"/>
<path d="M112.844 50.2454C112.899 50.1902 113.028 50.1902 113.083 50.2454C113.212 50.3006 113.212 50.4294 113.138 50.4847L112.365 51.4417L112.236 51.3865C112.531 51 112.77 50.6687 112.844 50.2454Z" fill="#1A182B"/>
<path d="M113.138 51.092C113.193 50.9632 113.322 50.9632 113.433 51.0368C113.488 51.092 113.488 51.2209 113.433 51.3313L112.586 52.2331L112.457 52.1227C112.825 51.8098 112.991 51.4049 113.138 51.092Z" fill="#1A182B"/>
<path d="M113.377 51.8098C113.433 51.7546 113.561 51.7546 113.617 51.8098C113.672 51.8651 113.745 51.9939 113.672 52.0491L112.77 53.0062L112.641 52.8773C112.972 52.546 113.23 52.2148 113.377 51.8098Z" fill="#1A182B"/>
<path d="M113.561 52.7669C113.617 52.7117 113.745 52.6381 113.856 52.7669C113.911 52.8221 113.911 52.9509 113.856 53.0062L112.954 53.908L112.844 53.7792C113.193 53.4479 113.469 53.1718 113.561 52.7669Z" fill="#1A182B"/>
<path d="M113.69 53.7791C113.746 53.7239 113.874 53.6687 113.985 53.7791C114.04 53.8343 114.04 53.9631 113.985 54.0184L113.083 54.9202L112.973 54.8098C113.322 54.5153 113.506 54.092 113.69 53.7791Z" fill="#1A182B"/>
<path d="M113.856 54.9202C113.911 54.865 114.04 54.865 114.15 54.9202C114.206 54.9754 114.206 55.1042 114.15 55.1595L113.249 56.0613L113.12 56.0061C113.488 55.638 113.764 55.3435 113.856 54.9202Z" fill="#1A182B"/>
<path d="M113.985 56.0613C114.04 56.0061 114.169 55.9325 114.224 56.0613C114.279 56.1166 114.353 56.2454 114.224 56.3006L113.322 57.1472L113.193 57.092C113.543 56.7607 113.819 56.4478 113.985 56.0613Z" fill="#1A182B"/>
<path d="M113.985 57.2025C114.095 57.0737 114.224 57.0737 114.279 57.1473C114.334 57.2577 114.334 57.3865 114.279 57.4418L113.322 58.2148L113.193 58.1595C113.58 57.9019 113.819 57.4786 113.985 57.2025Z" fill="#1A182B"/>
<path d="M114.04 58.2148C114.169 58.1595 114.279 58.1595 114.334 58.2148C114.39 58.3252 114.334 58.454 114.279 58.5092L113.193 59.1718L113.065 59.043C113.488 58.8589 113.782 58.5092 114.04 58.2148Z" fill="#1A182B"/>
<path d="M113.985 59.3006C114.095 59.2454 114.224 59.3006 114.279 59.3558C114.334 59.4662 114.279 59.5951 114.224 59.6503L113.083 60.184L113.028 60.0736C113.451 59.8527 113.782 59.6871 113.985 59.3006Z" fill="#1A182B"/>
<path d="M113.856 60.3681C113.985 60.3129 114.095 60.3681 114.15 60.4233C114.15 60.5521 114.15 60.6626 114.095 60.7178L112.954 61.2515L112.844 61.1411C113.304 60.9386 113.653 60.7546 113.856 60.3681Z" fill="#1A182B"/>
<path d="M113.745 61.454C113.874 61.3988 113.985 61.454 114.04 61.5092C114.04 61.6381 114.04 61.7485 113.911 61.7485L112.715 62.1718L112.66 62.0614C113.083 61.8957 113.469 61.7301 113.745 61.454Z" fill="#1A182B"/>
<path d="M113.617 62.3006C113.745 62.2454 113.856 62.3006 113.856 62.4295C113.911 62.4847 113.856 62.6135 113.801 62.6687L112.604 63.092L112.549 62.9632C112.954 62.7791 113.322 62.5951 113.617 62.3006Z" fill="#1A182B"/>
<path d="M113.451 63.0737C113.506 63.0184 113.635 63.0737 113.69 63.1841C113.746 63.2393 113.69 63.3681 113.635 63.4234L112.439 63.8467L112.384 63.7178C112.77 63.5522 113.157 63.3865 113.451 63.0737Z" fill="#1A182B"/>
<path d="M113.267 63.7362C113.396 63.681 113.506 63.7363 113.506 63.7915C113.561 63.9203 113.561 64.0307 113.506 64.0859L112.126 64.8037L111.997 64.6749C112.476 64.3988 112.972 64.1412 113.267 63.7362Z" fill="#1A182B"/>
<path d="M111.703 53.6688C111.574 53.6135 111.574 53.4847 111.574 53.3743C111.629 53.3191 111.758 53.2454 111.868 53.3191L112.954 53.9816L112.899 54.1105C112.531 53.7976 112.089 53.7424 111.703 53.6688Z" fill="#1A182B"/>
<path d="M111.887 54.5521C111.831 54.4969 111.758 54.3681 111.831 54.3128C111.887 54.184 112.015 54.184 112.071 54.2576L113.083 55.0306L113.028 55.1411C112.641 54.865 112.292 54.6441 111.887 54.5521Z" fill="#1A182B"/>
<path d="M111.942 55.5829C111.813 55.5277 111.813 55.3988 111.887 55.3436C111.942 55.2148 112.071 55.2148 112.126 55.2884L113.138 56.0614L113.083 56.1718C112.733 55.8773 112.292 55.7301 111.942 55.5829Z" fill="#1A182B"/>
<path d="M112.071 56.595C111.942 56.5398 111.942 56.411 112.015 56.3006C112.071 56.2454 112.199 56.2454 112.31 56.3006C112.365 56.3558 112.365 56.4294 112.365 56.4846L113.212 57.1472L113.157 57.2576L112.255 56.595C112.181 56.6503 112.126 56.6503 112.071 56.595Z" fill="#1A182B"/>
<path d="M112.071 57.6257C112.015 57.5705 112.015 57.4417 112.071 57.3865C112.126 57.2576 112.255 57.2576 112.31 57.3312L113.267 58.2331L113.138 58.3435C112.807 58.0306 112.476 57.773 112.071 57.6257Z" fill="#1A182B"/>
<path d="M112.071 58.5092C111.942 58.454 111.942 58.3252 112.071 58.2148C112.126 58.1595 112.255 58.1595 112.31 58.2148L113.157 59.1718L113.028 59.3006C112.77 58.9141 112.365 58.6933 112.071 58.5092Z" fill="#1A182B"/>
<path d="M112.015 59.3558C111.96 59.3006 111.96 59.1717 112.015 59.0613C112.071 59.0061 112.199 59.0061 112.255 59.0613L113.101 60.0184L113.046 60.1472C112.696 59.7607 112.42 59.4662 112.015 59.3558Z" fill="#1A182B"/>
<path d="M111.942 60.3129C111.887 60.2577 111.887 60.1289 111.942 60.0736C111.997 59.9632 112.126 60.0184 112.181 60.0736L112.954 61.0859L112.844 61.1411C112.604 60.7914 112.255 60.5522 111.942 60.3129Z" fill="#1A182B"/>
<path d="M111.758 61.1595C111.703 61.0306 111.703 60.9202 111.758 60.865C111.868 60.8098 111.997 60.8098 112.052 60.9202L112.715 62.0061L112.586 62.0613C112.402 61.6748 112.052 61.3987 111.758 61.1595Z" fill="#1A182B"/>
<path d="M111.279 63.0737C111.224 62.9448 111.224 62.8344 111.334 62.7792C111.39 62.724 111.519 62.724 111.574 62.8344L112.236 63.9203L112.107 63.9755C111.923 63.589 111.574 63.3313 111.279 63.0737Z" fill="#1A182B"/>
<path d="M110.874 63.9754C110.819 63.8466 110.874 63.7362 110.93 63.681C111.058 63.6257 111.169 63.6809 111.224 63.7362L111.831 64.9877L111.703 65.0429C111.463 64.5828 111.279 64.1963 110.874 63.9754Z" fill="#1A182B"/>
<path d="M111.518 61.9878C111.463 61.8589 111.463 61.7485 111.574 61.6933C111.629 61.6381 111.758 61.6933 111.813 61.7485L112.476 63L112.365 63.0552C112.181 62.6319 111.813 62.2822 111.518 61.9878Z" fill="#1A182B"/>
<path d="M106.733 42.5706C110.322 46.1043 112.604 50.3559 113.267 54.9755C113.93 59.6503 112.899 64.3804 110.322 68.6503C110.267 68.7608 110.083 68.7608 110.028 68.7056C109.899 68.6503 109.899 68.5215 109.972 68.4663C112.494 64.27 113.506 59.6503 112.844 55.0307C112.181 50.5399 110.028 46.27 106.494 42.8651C106.365 42.8098 106.365 42.681 106.494 42.5706C106.549 42.5154 106.678 42.5154 106.733 42.5706Z" fill="#1A182B"/>
<path d="M93.2792 42.9571C89.2485 42.9571 85.4755 44.5031 82.6228 47.3191C79.7884 50.135 78.224 53.8712 78.224 57.8283C78.224 66.0185 84.9786 72.681 93.2608 72.6994C101.561 72.6994 108.316 66.0369 108.316 57.8283V57.8099C108.316 49.6197 101.58 42.9571 93.2792 42.9571ZM93.2792 73.1227C84.7393 73.1227 77.8007 66.2577 77.7823 57.8283C77.7823 53.7424 79.3835 49.8957 82.3099 47.0062C85.2363 44.1166 89.1197 42.5154 93.2608 42.5154C101.801 42.5154 108.739 49.3804 108.758 57.8099V57.8283C108.758 66.2577 101.819 73.1227 93.2792 73.1227Z" fill="#1A182B"/>
<path d="M85.8989 73.2699H87.0216C80.8559 70.7485 76.494 64.6932 76.4756 57.6442C76.4756 53.135 78.224 48.9018 81.4081 45.6994C84.5921 42.5153 88.8253 40.7485 93.3345 40.7485C102.647 40.7485 110.212 48.3129 110.212 57.6258V57.6442C110.212 62.1534 108.445 66.3865 105.261 69.5705C103.641 71.1902 101.764 72.4233 99.7026 73.2699H100.825C102.574 72.4417 104.175 71.3006 105.592 69.8834C108.868 66.6074 110.672 62.2638 110.672 57.6258V57.6073C110.672 48.0552 102.887 40.2883 93.3345 40.2883C83.7823 40.2883 75.997 48.0736 76.0154 57.6258C76.0338 64.5276 80.0829 70.4908 85.8989 73.2699Z" fill="#1A182B"/>
<path d="M110.801 66.4969L109.991 64.0306C108.537 67.9693 105.629 71.2638 101.948 73.2883V77.3926H101.506V78.1288C107.911 75.6073 112.825 70.1595 114.629 63.3865L110.801 66.4969Z" fill="#1A182B"/>
<path d="M84.7762 77.3926V73.2883H84.813C81.1136 71.319 78.1504 68.1349 76.6964 64.1963L75.9234 66.4969L72.0952 63.368C73.8989 70.141 78.813 75.5889 85.2179 78.1104V77.3742H84.7762V77.3926Z" fill="#1A182B"/>
<path d="M84.8498 77.319H101.874V73.362H84.8498V77.319ZM102.04 77.4663H84.7025V73.2147H102.04V77.4663Z" fill="#1A182B"/>
<path d="M93.3713 74.0429C92.6535 74.0429 92.0829 74.6135 92.0829 75.3312C92.0829 76.049 92.6535 76.6196 93.3713 76.6196C94.0891 76.6196 94.6596 76.049 94.6596 75.3312C94.6596 74.6135 94.0706 74.0429 93.3713 74.0429ZM93.3713 76.822C92.543 76.822 91.8805 76.1411 91.8805 75.3312C91.8805 74.503 92.5614 73.8405 93.3713 73.8405C94.1995 73.8405 94.8621 74.503 94.8621 75.3312C94.8621 76.1595 94.1995 76.822 93.3713 76.822Z" fill="#1A182B"/>
<path d="M97.7332 74.0429C97.0154 74.0429 96.4449 74.6135 96.4449 75.3312C96.4449 76.049 97.0154 76.6196 97.7332 76.6196C98.451 76.6196 99.0216 76.049 99.0216 75.3312C99.0216 74.6135 98.451 74.0429 97.7332 74.0429ZM97.7332 76.822C96.905 76.822 96.2424 76.1411 96.2424 75.3312C96.2424 74.503 96.9234 73.8405 97.7332 73.8405C98.5614 73.8405 99.224 74.503 99.224 75.3312C99.224 76.1595 98.5614 76.822 97.7332 76.822Z" fill="#1A182B"/>
<path d="M95.543 74.0429C94.8252 74.0429 94.2547 74.6135 94.2547 75.3312C94.2547 76.049 94.8252 76.6196 95.543 76.6196C96.2608 76.6196 96.8314 76.049 96.8314 75.3312C96.8314 74.6135 96.2608 74.0429 95.543 74.0429ZM95.543 76.822C94.7148 76.822 94.0522 76.1411 94.0522 75.3312C94.0522 74.503 94.7332 73.8405 95.543 73.8405C96.3712 73.8405 97.0338 74.503 97.0338 75.3312C97.0522 76.1595 96.3712 76.822 95.543 76.822Z" fill="#1A182B"/>
<path d="M91.1811 74.0429C90.4633 74.0429 89.8927 74.6135 89.8927 75.3312C89.8927 76.049 90.4633 76.6196 91.1811 76.6196C91.8989 76.6196 92.4694 76.049 92.4694 75.3312C92.4694 74.6135 91.8989 74.0429 91.1811 74.0429ZM91.1811 76.822C90.3529 76.822 89.6903 76.1411 89.6903 75.3312C89.6903 74.503 90.3713 73.8405 91.1811 73.8405C92.0093 73.8405 92.6719 74.503 92.6719 75.3312C92.6903 76.1595 92.0093 76.822 91.1811 76.822Z" fill="#1A182B"/>
<path d="M89.0093 74.0429C88.2915 74.0429 87.7209 74.6135 87.7209 75.3312C87.7209 76.049 88.2915 76.6196 89.0093 76.6196C89.7271 76.6196 90.2976 76.049 90.2976 75.3312C90.2976 74.6135 89.7087 74.0429 89.0093 74.0429ZM89.0093 76.822C88.1811 76.822 87.5185 76.1411 87.5185 75.3312C87.5185 74.503 88.1995 73.8405 89.0093 73.8405C89.8375 73.8405 90.5001 74.503 90.5001 75.3312C90.5001 76.1595 89.8375 76.822 89.0093 76.822Z" fill="#1A182B"/>
<path d="M86.8191 74.0429C86.1013 74.0429 85.5308 74.6135 85.5308 75.3312C85.5308 76.049 86.1013 76.6196 86.8191 76.6196C87.5369 76.6196 88.1075 76.049 88.1075 75.3312C88.1075 74.6135 87.5369 74.0429 86.8191 74.0429ZM86.8191 76.822C85.9909 76.822 85.3283 76.1411 85.3283 75.3312C85.3283 74.503 86.0093 73.8405 86.8191 73.8405C87.6473 73.8405 88.3099 74.503 88.3099 75.3312C88.3099 76.1595 87.6473 76.822 86.8191 76.822Z" fill="#1A182B"/>
<path d="M99.9234 74.0429C99.2056 74.0429 98.635 74.6135 98.635 75.3312C98.635 76.049 99.2056 76.6196 99.9234 76.6196C100.641 76.6196 101.212 76.049 101.212 75.3312C101.193 74.6135 100.623 74.0429 99.9234 74.0429ZM99.9234 76.822C99.0952 76.822 98.4326 76.1411 98.4326 75.3312C98.4326 74.503 99.0952 73.8405 99.9234 73.8405C100.752 73.8405 101.414 74.503 101.414 75.3312C101.414 76.1595 100.733 76.822 99.9234 76.822Z" fill="#1A182B"/>
<path d="M105.187 63.6074C105.169 63.5338 105.169 63.4602 105.169 63.405C105.169 63.3498 105.15 63.3129 105.15 63.2761C105.132 63.2393 105.114 63.2025 105.114 63.1473C105.114 63.0921 105.114 63.0001 105.095 62.9632C105.077 62.908 105.04 62.908 105.022 62.8896C105.003 62.8712 104.985 62.8712 104.966 62.8528C104.966 62.8344 104.948 62.7976 104.948 62.7792C104.93 62.7608 104.911 62.7608 104.911 62.7424C104.911 62.724 104.911 62.7056 104.911 62.6688C104.911 62.6504 104.893 62.632 104.874 62.632C104.856 62.632 104.838 62.6504 104.838 62.6688C104.838 62.6872 104.819 62.724 104.801 62.724C104.782 62.7424 104.745 62.7424 104.727 62.7424C104.709 62.7424 104.69 62.7608 104.709 62.7792C104.709 62.7976 104.745 62.816 104.764 62.8344C104.782 62.8528 104.782 62.8712 104.764 62.8896C104.745 62.908 104.727 62.9264 104.727 62.9632C104.709 63.0001 104.709 63.0369 104.709 63.0553C104.709 63.0737 104.69 63.0921 104.69 63.0921C104.672 63.0921 104.653 63.0921 104.635 63.0921C104.617 63.0921 104.598 63.0921 104.58 63.1105C104.561 63.1289 104.561 63.1473 104.561 63.1657C104.543 63.1841 104.525 63.2209 104.506 63.2209C104.488 63.2209 104.469 63.1841 104.451 63.1841C104.433 63.1841 104.414 63.1841 104.396 63.2025C104.377 63.2209 104.377 63.2577 104.377 63.2761C104.377 63.2945 104.396 63.3129 104.414 63.3313C104.433 63.3498 104.433 63.3682 104.433 63.3866C104.433 63.405 104.433 63.4234 104.433 63.4234C104.433 63.4234 104.414 63.405 104.396 63.405C104.377 63.405 104.341 63.4234 104.322 63.4418C104.304 63.4602 104.322 63.4786 104.341 63.4786C104.359 63.497 104.377 63.497 104.396 63.5154C104.414 63.5338 104.414 63.5522 104.396 63.5522C104.377 63.5706 104.359 63.5706 104.341 63.5706C104.322 63.5706 104.285 63.589 104.285 63.6074C104.267 63.6258 104.267 63.6442 104.267 63.6626C104.267 63.681 104.249 63.6994 104.23 63.7179C104.212 63.7363 104.193 63.7363 104.193 63.7179C104.193 63.6994 104.212 63.681 104.23 63.6442C104.249 63.6258 104.249 63.589 104.23 63.589C104.212 63.589 104.175 63.589 104.157 63.6258C104.138 63.6442 104.12 63.681 104.12 63.7179C104.12 63.7363 104.12 63.7731 104.12 63.7731C104.12 63.7915 104.138 63.7915 104.157 63.7915C104.175 63.7915 104.175 63.8099 104.157 63.8283C104.138 63.8467 104.101 63.8467 104.083 63.8467C104.065 63.8467 104.065 63.8099 104.028 63.8099C104.009 63.8099 103.954 63.8099 103.936 63.8283C103.917 63.8467 103.917 63.8467 103.899 63.8651C103.88 63.8651 103.88 63.8835 103.862 63.8835C103.844 63.8835 103.825 63.9019 103.825 63.9203C103.825 63.9387 103.825 63.9571 103.844 63.9755C103.844 63.9939 103.862 64.0123 103.862 64.0123C103.862 64.0307 103.862 64.0491 103.844 64.0491C103.825 64.0491 103.788 64.0491 103.77 64.0307C103.752 64.0123 103.733 63.9939 103.715 63.9755C103.696 63.9755 103.641 63.9755 103.623 63.9939C103.604 64.0123 103.586 64.0307 103.568 64.0491C103.549 64.0675 103.531 64.0675 103.494 64.0675C103.457 64.0675 103.42 64.0491 103.384 64.0675C103.347 64.0859 103.347 64.1044 103.328 64.1228C103.31 64.1412 103.292 64.1596 103.255 64.1596C103.218 64.1596 103.181 64.1596 103.144 64.1596C103.107 64.178 103.107 64.1964 103.107 64.2332C103.107 64.27 103.107 64.3068 103.089 64.3436C103.071 64.3988 103.015 64.454 102.979 64.5093C102.942 64.5645 102.923 64.6381 102.923 64.7117C102.923 64.8037 102.96 64.8958 102.997 64.9694C103.034 65.043 103.034 65.043 103.034 65.0798C103.034 65.1166 103.015 65.1534 103.034 65.1902C103.052 65.2271 103.089 65.2639 103.107 65.2823C103.126 65.3191 103.126 65.3375 103.126 65.3743C103.126 65.4111 103.126 65.4663 103.107 65.5031C103.107 65.5399 103.107 65.5767 103.089 65.6136C103.071 65.6504 103.015 65.6688 102.979 65.7056C102.942 65.7424 102.923 65.7792 102.923 65.816C102.923 65.8528 102.905 65.908 102.887 65.9264C102.868 65.9633 102.831 65.9817 102.813 66.0001C102.795 66.0369 102.776 66.0737 102.758 66.0921C102.739 66.1289 102.739 66.1473 102.721 66.1841C102.703 66.2209 102.666 66.2761 102.666 66.3498C102.666 66.4234 102.703 66.497 102.721 66.5522C102.758 66.6074 102.776 66.6442 102.776 66.681C102.776 66.7178 102.776 66.7731 102.758 66.8283C102.758 66.8835 102.739 66.9387 102.739 66.9939C102.739 67.0491 102.739 67.0859 102.776 67.1228C102.813 67.1596 102.831 67.178 102.85 67.2148C102.868 67.2516 102.868 67.27 102.868 67.3068C102.868 67.3436 102.868 67.3804 102.887 67.3988C102.905 67.4172 102.942 67.4356 102.979 67.454C103.015 67.454 103.052 67.4725 103.089 67.4725C103.126 67.4909 103.144 67.5093 103.181 67.5461C103.218 67.5645 103.255 67.6013 103.31 67.6013C103.365 67.6013 103.457 67.5829 103.494 67.5645C103.549 67.5277 103.568 67.4909 103.586 67.4725C103.604 67.454 103.623 67.454 103.678 67.454C103.733 67.454 103.807 67.454 103.88 67.4356C103.936 67.4172 103.972 67.362 104.009 67.3068C104.046 67.2516 104.101 67.1596 104.12 67.1044C104.138 67.0491 104.138 66.9939 104.175 66.9571C104.193 66.9203 104.23 66.8835 104.249 66.8283C104.267 66.7731 104.285 66.6994 104.285 66.6258C104.285 66.5706 104.285 66.5154 104.304 66.4602C104.322 66.405 104.359 66.3129 104.396 66.2393C104.433 66.1657 104.451 66.0921 104.469 66.0369C104.488 65.9817 104.488 65.9264 104.506 65.8528C104.525 65.7792 104.543 65.6872 104.561 65.632C104.58 65.5767 104.617 65.5399 104.635 65.5031C104.653 65.4479 104.653 65.3927 104.672 65.3191C104.69 65.2639 104.709 65.2086 104.746 65.135C104.782 65.0798 104.838 65.0062 104.874 64.8958C104.911 64.7853 104.911 64.6197 104.911 64.5277C104.911 64.4356 104.93 64.4172 104.948 64.3988C104.985 64.3988 105.022 64.3988 105.058 64.3804C105.095 64.362 105.114 64.3436 105.132 64.3252C105.132 64.3068 105.132 64.2884 105.114 64.2884C105.095 64.2884 105.058 64.2884 105.04 64.2884C105.022 64.27 105.022 64.2516 105.04 64.2148C105.058 64.178 105.077 64.1596 105.058 64.1044C105.058 64.0491 105.022 63.9939 105.003 63.9387C104.985 63.8835 105.003 63.8283 105.022 63.8099C105.04 63.7915 105.058 63.7915 105.077 63.8099C105.095 63.8283 105.095 63.8651 105.114 63.9019C105.132 63.9387 105.15 63.9755 105.169 63.9755C105.187 63.9755 105.224 63.9571 105.242 63.9019C105.261 63.8651 105.279 63.7915 105.279 63.7363C105.242 63.7363 105.206 63.681 105.187 63.6074Z" fill="#1A182B"/>
<path d="M105.298 54.4417C105.298 54.4233 105.316 54.4049 105.316 54.4049C105.316 54.3865 105.316 54.3681 105.316 54.3497C105.298 54.3313 105.279 54.3129 105.242 54.3129C105.206 54.2944 105.169 54.2944 105.132 54.3129C105.114 54.3313 105.114 54.3497 105.095 54.3681C105.095 54.3681 105.095 54.3865 105.077 54.3865C105.058 54.4049 105.04 54.4049 105.022 54.4233C104.966 54.4601 104.93 54.4601 104.837 54.4785C104.745 54.4969 104.598 54.5337 104.506 54.5521C104.488 54.5521 104.469 54.5521 104.451 54.5705C104.396 54.5705 104.341 54.5889 104.304 54.5889C104.249 54.5889 104.193 54.6073 104.157 54.6073C104.138 54.6073 104.138 54.6073 104.12 54.6073H104.101C104.064 54.6073 104.028 54.6073 103.991 54.6257C103.954 54.6441 103.917 54.6625 103.88 54.6994C103.862 54.7178 103.825 54.7362 103.788 54.7362C103.733 54.7546 103.66 54.7546 103.604 54.7546C103.568 54.7546 103.549 54.7362 103.531 54.7362C103.494 54.7362 103.476 54.7546 103.42 54.773C103.402 54.7914 103.365 54.7914 103.328 54.8098C103.291 54.8282 103.255 54.8282 103.218 54.8466C103.163 54.865 103.089 54.8834 103.052 54.865C103.015 54.8466 102.96 54.8466 102.905 54.8098C102.85 54.773 102.795 54.7178 102.739 54.6625L102.721 54.6441C102.703 54.6257 102.684 54.6073 102.647 54.5705C102.61 54.5337 102.574 54.4969 102.537 54.4785C102.5 54.4601 102.482 54.4601 102.445 54.4601C102.426 54.4601 102.408 54.4601 102.39 54.4601C102.371 54.4601 102.353 54.4417 102.371 54.4233C102.371 54.4049 102.408 54.4049 102.445 54.3865C102.463 54.3865 102.463 54.3865 102.482 54.3681C102.518 54.3681 102.555 54.3497 102.574 54.3313C102.592 54.3129 102.61 54.2944 102.61 54.276C102.61 54.2576 102.611 54.2208 102.592 54.184C102.574 54.1472 102.555 54.1104 102.537 54.0736C102.518 54.0368 102.5 54.0184 102.463 54C102.445 53.9816 102.408 53.9816 102.39 53.9816H102.371C102.334 53.9632 102.316 53.9632 102.316 53.9448C102.316 53.9448 102.316 53.9448 102.298 53.9263C102.298 53.9079 102.279 53.8895 102.261 53.8895C102.242 53.8711 102.242 53.8711 102.224 53.8527C102.206 53.8343 102.187 53.8159 102.169 53.8159C102.15 53.7975 102.132 53.7791 102.114 53.7607C102.114 53.7423 102.095 53.7239 102.095 53.7239C102.077 53.7055 102.058 53.6871 102.04 53.6687C102.04 53.6687 102.022 53.6687 102.003 53.6503C101.985 53.6503 101.985 53.6319 101.966 53.6319C101.948 53.6135 101.93 53.5951 101.93 53.5767C101.93 53.5583 101.911 53.5582 101.893 53.5214C101.874 53.503 101.819 53.4662 101.801 53.4294C101.782 53.4294 101.782 53.411 101.764 53.411C101.764 53.411 101.764 53.411 101.745 53.411C101.727 53.411 101.69 53.3926 101.672 53.3742C101.672 53.3742 101.653 53.3742 101.653 53.3558C101.635 53.3374 101.635 53.319 101.598 53.319C101.58 53.3006 101.543 53.319 101.506 53.3006C101.488 53.3006 101.469 53.3006 101.451 53.2822C101.433 53.2822 101.414 53.2638 101.396 53.227C101.396 53.227 101.396 53.2086 101.377 53.2086C101.377 53.1902 101.359 53.1533 101.341 53.1349C101.322 53.1165 101.304 53.1165 101.285 53.1165C101.267 53.1165 101.249 53.1165 101.23 53.1349V53.1533C101.23 53.1533 101.23 53.1533 101.23 53.1717C101.23 53.1902 101.23 53.1902 101.212 53.2086C101.212 53.2086 101.193 53.2086 101.193 53.1902C101.193 53.1717 101.175 53.1349 101.157 53.1165C101.157 53.0981 101.138 53.0797 101.138 53.0429C101.12 53.0061 101.101 52.9877 101.083 52.9509C101.083 52.9509 101.083 52.9325 101.064 52.9325C101.064 52.9141 101.046 52.8957 101.046 52.8957C101.028 52.8773 101.028 52.8405 101.009 52.8036C101.009 52.7852 101.009 52.7852 101.009 52.7668C101.009 52.73 100.991 52.6932 100.991 52.6564C100.972 52.6012 100.954 52.546 100.936 52.5092C100.917 52.454 100.899 52.4171 100.88 52.3987C100.862 52.3803 100.862 52.3619 100.844 52.3251C100.825 52.3067 100.807 52.2699 100.788 52.2515C100.77 52.2331 100.752 52.2331 100.733 52.2147C100.715 52.1963 100.696 52.1779 100.678 52.1595C100.66 52.1411 100.641 52.1227 100.623 52.1043C100.604 52.0859 100.586 52.0675 100.568 52.049C100.549 52.0306 100.531 52.0306 100.512 52.0122C100.494 51.9938 100.476 51.9938 100.457 51.9754C100.42 51.957 100.383 51.9202 100.365 51.8834C100.347 51.8466 100.328 51.8098 100.328 51.773C100.328 51.7546 100.328 51.7546 100.328 51.7362C100.328 51.7178 100.328 51.6994 100.31 51.6625C100.31 51.6257 100.291 51.6073 100.273 51.5705C100.255 51.5337 100.255 51.4785 100.236 51.4601C100.236 51.4233 100.236 51.4049 100.236 51.3865C100.236 51.3681 100.236 51.3497 100.236 51.3313C100.236 51.3129 100.236 51.276 100.218 51.2576V51.2392C100.218 51.2208 100.218 51.2024 100.218 51.184C100.218 51.184 100.236 51.184 100.236 51.1656C100.255 51.1656 100.273 51.1656 100.273 51.1656C100.291 51.1656 100.291 51.1472 100.291 51.1288C100.291 51.1104 100.255 51.092 100.236 51.0736C100.218 51.0552 100.181 51.0184 100.163 51C100.144 50.9632 100.126 50.9448 100.126 50.9079V50.8895C100.126 50.8527 100.107 50.8159 100.089 50.7975C100.071 50.7791 100.071 50.7607 100.034 50.7607C100.015 50.7607 99.997 50.7423 99.9602 50.7239C99.9234 50.7055 99.8866 50.6687 99.8498 50.6503C99.813 50.6319 99.7761 50.6135 99.7577 50.5951C99.7393 50.5767 99.7209 50.5583 99.7025 50.5214C99.6841 50.4846 99.6657 50.4478 99.6473 50.3926C99.6289 50.3374 99.6289 50.3006 99.6289 50.2638C99.6289 50.227 99.6473 50.2086 99.6473 50.1902C99.6473 50.1718 99.6289 50.1533 99.6105 50.1349C99.5921 50.1165 99.5553 50.0797 99.5369 50.0613C99.5185 50.0429 99.5001 50.0245 99.4817 49.9877C99.4633 49.9693 99.4448 49.9325 99.4448 49.9141C99.4264 49.8957 99.4265 49.8773 99.408 49.8589C99.3896 49.8221 99.3528 49.7852 99.316 49.73C99.316 49.7116 99.2976 49.7116 99.2976 49.6932C99.2608 49.6196 99.2056 49.546 99.1688 49.4908C99.132 49.4356 99.1136 49.3803 99.0952 49.3435C99.0768 49.3067 99.0768 49.2883 99.0584 49.2515C99.0399 49.2147 99.0215 49.1779 99.0031 49.1411C98.9847 49.1043 98.9479 49.0859 98.9295 49.049C98.9111 49.0122 98.8743 48.9938 98.8743 48.957C98.8559 48.9202 98.8559 48.9018 98.8375 48.8834C98.8191 48.865 98.8007 48.8282 98.7823 48.8098C98.7639 48.7914 98.7271 48.773 98.7087 48.7546C98.6902 48.7362 98.6719 48.7362 98.6719 48.7178C98.6719 48.6994 98.6534 48.6994 98.6534 48.681L98.635 48.6625L98.6166 48.6441C98.5982 48.6073 98.5614 48.5705 98.543 48.5337C98.5246 48.4969 98.5062 48.4785 98.4878 48.4601C98.4694 48.4417 98.451 48.4049 98.4326 48.3681C98.4326 48.3313 98.4326 48.3129 98.451 48.2944C98.4694 48.276 98.4878 48.276 98.5062 48.276C98.5246 48.276 98.543 48.2944 98.5614 48.3129C98.5798 48.3313 98.6166 48.3681 98.6534 48.4049C98.6903 48.4417 98.7087 48.4785 98.7271 48.5153C98.7455 48.5521 98.7455 48.5705 98.7639 48.5889C98.7639 48.6257 98.7823 48.6625 98.7823 48.681C98.7823 48.6994 98.8007 48.7178 98.8191 48.7178C98.8375 48.7362 98.8559 48.7546 98.9111 48.773C98.9479 48.8098 99.0031 48.8466 99.0584 48.865C99.1136 48.8834 99.1504 48.8834 99.1688 48.8834C99.1872 48.8834 99.2056 48.865 99.2056 48.8466C99.2056 48.8282 99.2056 48.8098 99.2056 48.773C99.2056 48.7362 99.2056 48.6994 99.224 48.6625C99.224 48.6257 99.2424 48.6073 99.2424 48.5705C99.2424 48.5337 99.2608 48.5153 99.2608 48.4969C99.2608 48.4785 99.2608 48.4601 99.2608 48.4417C99.2608 48.4233 99.2608 48.3865 99.2792 48.3681C99.2792 48.3497 99.2976 48.3129 99.316 48.2944C99.316 48.276 99.3344 48.2576 99.316 48.2392C99.316 48.2024 99.2976 48.1656 99.2976 48.1288C99.2976 48.092 99.2792 48.0552 99.2792 48.0368C99.2792 48.0184 99.2608 48 99.2608 47.9816C99.2424 47.9632 99.224 47.9263 99.2056 47.9079C99.1872 47.8895 99.1688 47.8711 99.1688 47.8527C99.1504 47.8343 99.132 47.7975 99.132 47.7791C99.1136 47.7607 99.1136 47.7423 99.0768 47.7423C99.0583 47.7423 99.0031 47.7607 98.9663 47.7791C98.9295 47.7975 98.8743 47.7975 98.8375 47.7975C98.8007 47.7975 98.7639 47.7975 98.7271 47.7975C98.6903 47.7975 98.6718 47.7975 98.6534 47.7975C98.635 47.7975 98.6166 47.8159 98.5982 47.8343C98.5798 47.8343 98.5614 47.8527 98.5246 47.8527C98.5062 47.8527 98.4694 47.8711 98.451 47.8895C98.4326 47.9079 98.4142 47.9264 98.3958 47.9448C98.3774 47.9448 98.3774 47.9448 98.359 47.9263C98.3406 47.9079 98.3222 47.8711 98.2853 47.8527C98.2485 47.8343 98.2117 47.8159 98.1565 47.8159C98.1013 47.7975 98.0277 47.7975 97.9357 47.7975C97.862 47.7975 97.7884 47.8343 97.7332 47.8527C97.678 47.8711 97.6412 47.8895 97.6044 47.9263C97.5675 47.9448 97.5123 47.9816 97.4755 48C97.4203 48.0184 97.3835 48.0368 97.3283 48.0184C97.2915 48.0184 97.2363 48 97.1995 47.9816C97.1627 47.9632 97.1074 47.9632 97.0706 47.9448C97.0338 47.9264 96.997 47.9263 96.9418 47.9079C96.905 47.9079 96.8866 47.8895 96.8314 47.8895C96.813 47.8895 96.813 47.8895 96.7945 47.8895C96.6841 47.8711 96.5921 47.8343 96.4817 47.8343C96.3712 47.8159 96.2608 47.8159 96.1872 47.8159C96.1136 47.8159 96.1136 47.7975 96.0952 47.7791L96.0768 47.7607C96.0583 47.7423 96.0583 47.7239 96.0399 47.7055C96.0031 47.6871 95.9663 47.6871 95.9295 47.6687C95.9111 47.6687 95.8927 47.6687 95.8743 47.6687C95.8375 47.6503 95.7823 47.6503 95.7455 47.6503C95.6718 47.6319 95.5982 47.6319 95.543 47.6135C95.4878 47.5951 95.4694 47.5583 95.4326 47.5214C95.4142 47.4846 95.3774 47.4662 95.3037 47.4478C95.2301 47.4294 95.1197 47.411 95.0277 47.3926C94.9356 47.3926 94.8804 47.3926 94.8252 47.411C94.77 47.4294 94.6964 47.4478 94.6412 47.4846C94.5676 47.5214 94.4939 47.5951 94.4387 47.6503C94.4019 47.7055 94.3835 47.7423 94.4019 47.8159C94.4203 47.8711 94.4387 47.9448 94.4387 48C94.4387 48.0552 94.4203 48.092 94.4019 48.1288C94.3835 48.1656 94.3651 48.184 94.3283 48.2024C94.2915 48.2208 94.2179 48.2576 94.1626 48.276C94.1074 48.2944 94.0706 48.2944 94.0338 48.276C93.9786 48.2576 93.9418 48.2024 93.8498 48.1656C93.7761 48.1288 93.6657 48.0736 93.5553 48.0368C93.4449 48 93.3344 47.9816 93.2424 47.9632C93.1504 47.9448 93.0768 47.9263 93.0215 47.9079C92.9663 47.8895 92.9663 47.8711 92.9295 47.8343C92.9111 47.7975 92.8743 47.7239 92.8559 47.6871C92.8375 47.6319 92.8007 47.5951 92.7823 47.5767C92.7455 47.5583 92.7271 47.5398 92.6718 47.5214C92.6718 47.503 92.6534 47.503 92.6166 47.503C92.5798 47.503 92.543 47.503 92.5062 47.503C92.4878 47.503 92.451 47.503 92.4326 47.503C92.3406 47.4846 92.2301 47.4846 92.1565 47.4662C92.0829 47.4662 92.0645 47.4662 92.0093 47.4478C91.9725 47.4294 91.8988 47.411 91.8436 47.3926C91.7884 47.3742 91.7332 47.3742 91.6964 47.3742C91.678 47.3558 91.6596 47.3374 91.6412 47.3374C91.6228 47.319 91.6044 47.319 91.586 47.3006C91.5676 47.3006 91.5307 47.2822 91.5123 47.2638C91.4939 47.2454 91.4939 47.2454 91.4755 47.227C91.4755 47.227 91.4755 47.2086 91.4571 47.2086C91.4387 47.1902 91.4203 47.1717 91.3835 47.1717H91.3651C91.3467 47.1717 91.3467 47.1717 91.3283 47.1717H91.3099C91.3099 47.1717 91.2915 47.1533 91.2731 47.1533C91.2731 47.1533 91.2547 47.1533 91.2363 47.1533C91.2179 47.1533 91.2179 47.1533 91.1995 47.1349C91.1626 47.1165 91.1258 47.0981 91.1074 47.0981C91.089 47.0797 91.0706 47.0613 91.0522 47.0429C91.0522 47.0245 91.0522 46.9877 91.0522 46.9693C91.0522 46.9509 91.0706 46.9141 91.089 46.8957C91.1074 46.8773 91.1258 46.8589 91.1442 46.8405C91.1626 46.8405 91.181 46.8221 91.1995 46.8037C91.2179 46.7852 91.2363 46.7852 91.2547 46.7668C91.2915 46.7484 91.3283 46.7116 91.3283 46.6932C91.3283 46.6748 91.3283 46.6564 91.3283 46.638C91.3283 46.6196 91.3283 46.6196 91.3283 46.6012C91.3283 46.5828 91.3283 46.5644 91.3283 46.5276L91.3467 46.5092C91.3467 46.4908 91.3467 46.454 91.3467 46.4356C91.3467 46.4171 91.3283 46.3987 91.3099 46.3803C91.2915 46.3803 91.2915 46.3619 91.2731 46.3619C91.2547 46.3435 91.2363 46.3435 91.2179 46.3251C91.1995 46.3067 91.1811 46.2883 91.1811 46.2699C91.1811 46.2515 91.1811 46.2331 91.1811 46.2147C91.1995 46.1963 91.2179 46.1595 91.2363 46.1411C91.2547 46.1227 91.2731 46.1227 91.2731 46.1043C91.3099 46.0859 91.3467 46.049 91.3651 46.0122C91.3835 45.9754 91.3651 45.9202 91.3467 45.9018C91.3283 45.8834 91.2915 45.8834 91.2547 45.9018C91.2363 45.9018 91.2363 45.9202 91.2179 45.9202H91.1995C91.1626 45.9202 91.1258 45.9386 91.1074 45.9386C91.089 45.9386 91.089 45.9386 91.089 45.9202C91.089 45.9202 91.0706 45.9018 91.0706 45.8834C91.0706 45.865 91.0522 45.8466 91.0338 45.8282C91.0154 45.8098 90.9786 45.7914 90.9234 45.7914C90.8866 45.7914 90.813 45.7914 90.7761 45.7914C90.7393 45.8098 90.7025 45.8282 90.6657 45.8466C90.6289 45.865 90.6105 45.865 90.5737 45.8834C90.5369 45.9018 90.4817 45.9202 90.4449 45.9202C90.4265 45.9202 90.3896 45.9386 90.3712 45.9386H90.3528C90.316 45.9386 90.2792 45.9202 90.2608 45.9018C90.224 45.8834 90.2056 45.8834 90.1688 45.8834C90.1504 45.8834 90.132 45.8834 90.132 45.9018C90.0952 45.9018 90.0768 45.9018 90.0399 45.9018C90.0215 45.9018 90.0031 45.9018 89.9847 45.8834C89.9847 45.8834 89.9847 45.8834 89.9663 45.8834C89.9479 45.865 89.9295 45.865 89.8927 45.865C89.8559 45.865 89.8191 45.865 89.7823 45.865C89.7639 45.865 89.7639 45.8834 89.7455 45.8834C89.7455 45.8834 89.7271 45.8834 89.7271 45.9018C89.6903 45.9202 89.6534 45.9386 89.6166 45.957C89.5798 45.9754 89.543 45.9754 89.5062 45.9754C89.4878 45.9754 89.4694 45.9754 89.4326 45.957C89.4142 45.957 89.4142 45.9386 89.3958 45.9386C89.3958 45.9386 89.3774 45.9386 89.359 45.9386C89.3222 45.9202 89.2853 45.9202 89.2485 45.9018C89.1933 45.8834 89.1565 45.8834 89.1197 45.9018H89.1013C89.0645 45.9018 89.0461 45.9018 89.0277 45.9202H89.0093C88.9909 45.9202 88.9725 45.9202 88.9541 45.9202C88.9357 45.9202 88.9172 45.9202 88.8988 45.9202C88.8804 45.9202 88.862 45.9202 88.862 45.9386C88.8436 45.9386 88.8068 45.9386 88.7884 45.957C88.77 45.957 88.7516 45.957 88.7332 45.957C88.7148 45.957 88.6964 45.9754 88.678 45.9754C88.6596 45.9754 88.6412 45.9754 88.6228 45.9938C88.6044 45.9938 88.6044 45.9938 88.586 45.9938C88.5676 45.9938 88.5491 45.9938 88.5307 45.9938C88.5123 45.9938 88.4939 46.0122 88.4755 46.0122C88.4571 46.0122 88.4387 46.0306 88.4019 46.0306C88.3835 46.0306 88.3651 46.0306 88.3283 46.0306C88.3099 46.0306 88.2915 46.0306 88.2547 46.0306C88.181 46.0306 88.0706 46.049 87.997 46.0859C87.9602 46.1043 87.9234 46.1227 87.905 46.1411C87.8866 46.1595 87.8682 46.1595 87.8314 46.1779C87.813 46.1779 87.7945 46.1963 87.7761 46.1963C87.7761 46.1963 87.7761 46.1963 87.7577 46.1963C87.7209 46.1963 87.6657 46.2147 87.6473 46.2331C87.6105 46.2515 87.6105 46.2515 87.5921 46.2699C87.5737 46.2699 87.5737 46.2699 87.5553 46.2883C87.5369 46.2883 87.5185 46.3067 87.5001 46.3067C87.4817 46.3067 87.4817 46.3067 87.4633 46.3251C87.4449 46.3251 87.408 46.3435 87.3896 46.3803C87.3712 46.3987 87.3712 46.4171 87.3528 46.4171C87.3528 46.4171 87.3528 46.4171 87.3344 46.4171C87.2976 46.454 87.2608 46.4724 87.2424 46.5092C87.224 46.5276 87.2056 46.546 87.1872 46.546C87.1688 46.5644 87.1504 46.5644 87.132 46.5644C87.1136 46.5644 87.1136 46.5644 87.0952 46.5644C87.0768 46.5644 87.0584 46.5644 87.0399 46.5644C87.0215 46.5644 87.0031 46.5644 86.9663 46.546C86.9479 46.546 86.9111 46.5276 86.8927 46.5276C86.8375 46.5092 86.8007 46.5092 86.7639 46.4908C86.7271 46.4908 86.6903 46.4908 86.6534 46.4908C86.6166 46.4908 86.5798 46.4908 86.5246 46.4908C86.4878 46.4908 86.4694 46.5092 86.4326 46.5092C86.3958 46.5092 86.3774 46.5092 86.3406 46.5092C86.3037 46.5092 86.2853 46.5092 86.2485 46.4908C86.2117 46.4724 86.1749 46.4356 86.1381 46.3987L86.1197 46.3803C86.1013 46.3619 86.0829 46.3435 86.0645 46.3251C86.0277 46.2883 85.9725 46.2699 85.9172 46.2699C85.8804 46.2699 85.8252 46.2883 85.7884 46.3619C85.7516 46.4171 85.6964 46.5092 85.6596 46.6012C85.6412 46.638 85.6228 46.6932 85.6044 46.73C85.586 46.7668 85.5676 46.8036 85.5676 46.8221C85.5492 46.8405 85.5491 46.8589 85.5307 46.8773C85.5123 46.8957 85.4939 46.9141 85.4571 46.9325C85.4387 46.9325 85.4387 46.9325 85.4203 46.9509C85.3835 46.9693 85.3283 46.9877 85.2915 47.0245C85.2915 47.0245 85.2731 47.0245 85.2731 47.0429C85.2547 47.0613 85.2363 47.0613 85.1995 47.0797C85.1626 47.0981 85.1074 47.1165 85.0522 47.1349C85.0338 47.1349 85.0154 47.1533 84.997 47.1533C84.9418 47.1718 84.8682 47.2086 84.7945 47.2638L84.7761 47.2822C84.7393 47.3006 84.7025 47.3374 84.6841 47.3558C84.6657 47.3742 84.6473 47.3926 84.6473 47.4294C84.6289 47.4662 84.6289 47.4846 84.6289 47.503C84.6289 47.5398 84.6105 47.5583 84.6105 47.5767C84.6105 47.5951 84.5921 47.6135 84.5737 47.6319L84.5553 47.6503C84.5369 47.6687 84.5185 47.6871 84.5001 47.7055C84.4817 47.7423 84.4633 47.7607 84.4633 47.8343C84.4633 47.8711 84.4633 47.9079 84.4633 47.9448C84.4633 47.9816 84.4633 48.0184 84.4633 48.0552C84.4633 48.092 84.4449 48.1472 84.4449 48.1656C84.4449 48.184 84.4264 48.2208 84.408 48.2392C84.3896 48.2576 84.3712 48.2944 84.3528 48.3129L84.3344 48.3313C84.316 48.3497 84.316 48.3497 84.2976 48.3681C84.2792 48.3865 84.2792 48.4049 84.2608 48.4233C84.2424 48.4417 84.224 48.4785 84.2056 48.4969C84.1872 48.5153 84.1688 48.5337 84.1504 48.5521L84.132 48.5705C84.1136 48.5705 84.1136 48.5889 84.0952 48.5889C84.0584 48.6073 84.0399 48.6257 84.0031 48.6441C83.9847 48.6625 83.9663 48.681 83.9479 48.681C83.9111 48.6994 83.8743 48.7362 83.8375 48.7546C83.8007 48.773 83.7639 48.7914 83.7087 48.8098C83.6718 48.8282 83.6166 48.8466 83.5614 48.865C83.5246 48.8834 83.4694 48.8834 83.4326 48.9018C83.359 48.9202 83.2669 48.9386 83.2117 48.9754C83.1565 49.0122 83.1197 49.0675 83.1013 49.1411C83.0829 49.1779 83.0645 49.1963 83.0645 49.2331V49.2515C83.0461 49.2883 83.0277 49.3251 83.0093 49.3619C82.9909 49.3803 82.9725 49.3987 82.9357 49.4171C82.8988 49.4356 82.862 49.4356 82.8252 49.454C82.8068 49.454 82.7884 49.4724 82.7884 49.4908C82.7516 49.5276 82.7516 49.5644 82.7516 49.6012C82.7516 49.6012 82.7516 49.6012 82.7516 49.6196C82.7332 49.6564 82.7332 49.6748 82.7148 49.6932L82.6964 49.7116L82.678 49.73C82.6412 49.7668 82.6228 49.7852 82.6044 49.8589C82.6044 49.8773 82.586 49.9141 82.586 49.9509C82.586 49.9693 82.5676 49.9877 82.5676 50.0061C82.5491 50.0429 82.5492 50.0613 82.5307 50.0797C82.5123 50.0981 82.4939 50.1165 82.4571 50.1165C82.4571 50.1165 82.4387 50.1165 82.4203 50.1349C82.3651 50.1533 82.2915 50.1717 82.2363 50.2086C82.1811 50.2454 82.1258 50.3006 82.089 50.3558C82.089 50.3742 82.0706 50.3742 82.0706 50.3926C82.0522 50.4294 82.0154 50.4662 81.997 50.4846C81.9786 50.503 81.9602 50.5214 81.9418 50.5398C81.9234 50.5583 81.8866 50.5951 81.8866 50.6135C81.8682 50.6503 81.8682 50.7055 81.8498 50.7423C81.8498 50.7607 81.8498 50.7791 81.8314 50.7975C81.8314 50.8159 81.813 50.8343 81.7945 50.8527C81.7761 50.8527 81.7577 50.8711 81.7577 50.8711C81.7393 50.8711 81.7209 50.8711 81.7025 50.8895C81.6657 50.9079 81.6473 50.9448 81.6105 50.9816C81.5921 51.0184 81.5737 51.0552 81.5737 51.092C81.5737 51.1288 81.5737 51.184 81.5737 51.2208C81.5737 51.2576 81.5921 51.276 81.6105 51.2945C81.6289 51.3129 81.6289 51.3129 81.6473 51.3313C81.6473 51.3313 81.6473 51.3313 81.6657 51.3497C81.6841 51.3681 81.7209 51.4049 81.7577 51.4233C81.7761 51.4417 81.7761 51.4601 81.7945 51.4969C81.7945 51.5337 81.813 51.5705 81.813 51.6073C81.813 51.6441 81.813 51.681 81.813 51.7178C81.813 51.7546 81.7945 51.7914 81.7945 51.8098C81.7945 51.8282 81.7761 51.8282 81.7761 51.8282C81.7577 51.8282 81.7577 51.8282 81.7393 51.8466C81.7209 51.8466 81.7209 51.865 81.7393 51.9018C81.7393 51.9202 81.7577 51.9202 81.7761 51.9386C81.7945 51.957 81.813 51.9754 81.8314 52.0122C81.8498 52.0491 81.8682 52.0859 81.8866 52.1411C81.905 52.1963 81.905 52.2331 81.8866 52.2883C81.8866 52.3435 81.8682 52.3987 81.8498 52.454C81.8314 52.5092 81.8314 52.546 81.813 52.5828C81.7945 52.6196 81.7761 52.6748 81.7577 52.73C81.7577 52.7484 81.7393 52.7484 81.7393 52.7668C81.7209 52.7852 81.7025 52.8221 81.7025 52.8405C81.6841 52.8773 81.6841 52.9141 81.6841 52.9693C81.6841 53.0061 81.6657 53.0613 81.6473 53.1165C81.6289 53.1717 81.5921 53.227 81.5553 53.2822C81.5553 53.3006 81.5369 53.3006 81.5185 53.319C81.5001 53.3374 81.4817 53.3558 81.4633 53.3742C81.4449 53.3926 81.4265 53.411 81.408 53.411C81.3712 53.4478 81.3528 53.4478 81.3712 53.4846C81.3896 53.503 81.408 53.5398 81.4449 53.5767V53.5951C81.4817 53.6687 81.5369 53.7791 81.5921 53.8343V53.8527C81.5921 53.8527 81.5737 53.8527 81.5737 53.8711C81.5737 53.8711 81.5737 53.8711 81.5553 53.8711C81.5369 53.8895 81.5185 53.8895 81.5001 53.9079C81.4817 53.9263 81.4817 53.9448 81.4817 53.9632C81.4817 53.9816 81.5001 54 81.5001 54.0184C81.5001 54.0368 81.5001 54.0736 81.5001 54.092C81.5001 54.1104 81.5185 54.1288 81.5369 54.1472H81.5553C81.5737 54.184 81.5921 54.2024 81.6105 54.2208C81.5921 54.2208 81.5921 54.2208 81.5737 54.2208C81.5369 54.2208 81.5001 54.2208 81.5001 54.2392C81.4817 54.2576 81.5001 54.276 81.5185 54.2944C81.5369 54.3129 81.5737 54.3129 81.5921 54.3313C81.6105 54.3497 81.6105 54.3681 81.6289 54.3681C81.6473 54.3865 81.6473 54.3865 81.6841 54.3865H81.7025C81.7209 54.3865 81.7577 54.3865 81.7577 54.3865C81.7761 54.3865 81.7761 54.3865 81.7761 54.4049C81.7945 54.4233 81.7945 54.4417 81.813 54.4417C81.8314 54.4417 81.8498 54.4417 81.8682 54.4233C81.8682 54.4233 81.8682 54.4233 81.8866 54.4233C81.905 54.4233 81.9234 54.4233 81.9418 54.4233C81.9602 54.4233 81.9786 54.4233 81.9786 54.4417C81.9786 54.4417 81.9786 54.4601 81.9602 54.4785C81.9602 54.4785 81.9418 54.4969 81.9234 54.4969C81.9234 54.4969 81.905 54.4969 81.8866 54.4969C81.8682 54.4969 81.8314 54.5153 81.813 54.5337L81.7945 54.5521C81.7577 54.5705 81.7209 54.6073 81.6841 54.6257C81.6657 54.6257 81.6657 54.6257 81.6473 54.6441C81.6473 54.6625 81.6473 54.681 81.6473 54.6994C81.6473 54.7178 81.6657 54.7178 81.6841 54.7178L81.7025 54.6994C81.7393 54.681 81.7945 54.6625 81.8498 54.6441C81.8682 54.6441 81.8866 54.6441 81.905 54.6441C81.9234 54.6441 81.9418 54.6625 81.9602 54.681C81.9786 54.681 81.997 54.681 82.0338 54.681H82.0522H82.0706C82.1074 54.681 82.1258 54.6994 82.1442 54.6994C82.1626 54.6994 82.1626 54.6994 82.1626 54.7178C82.1626 54.7178 82.1626 54.7362 82.181 54.7546C82.181 54.773 82.181 54.773 82.181 54.7914C82.181 54.8098 82.1995 54.8098 82.2179 54.8098C82.2179 54.8098 82.2363 54.8098 82.2363 54.8282C82.2547 54.8282 82.2547 54.8466 82.2731 54.865C82.2731 54.865 82.2731 54.8834 82.2731 54.9018C82.2731 54.9018 82.2731 54.9018 82.2731 54.9202C82.2731 54.9386 82.2731 54.9754 82.2915 54.9938C82.3099 55.0122 82.3283 55.0491 82.3651 55.0675C82.3835 55.0859 82.4019 55.0859 82.4203 55.1043C82.4387 55.1043 82.4571 55.1227 82.4571 55.1227C82.4755 55.1411 82.4939 55.1411 82.4939 55.1595C82.4939 55.1595 82.4939 55.1595 82.5123 55.1779C82.5123 55.1779 82.5307 55.1779 82.5307 55.1963C82.5492 55.2147 82.5676 55.2147 82.5676 55.2331L82.586 55.2515C82.6044 55.2699 82.6044 55.2883 82.6228 55.2883C82.6228 55.3067 82.6412 55.3067 82.6412 55.3251C82.6596 55.3435 82.678 55.3803 82.678 55.3987C82.678 55.3987 82.678 55.4171 82.6964 55.4171C82.6964 55.4171 82.6964 55.4171 82.6964 55.4356C82.6964 55.4356 82.6964 55.454 82.6964 55.4724C82.6964 55.4908 82.6964 55.5276 82.6964 55.546C82.6964 55.546 82.6964 55.5644 82.678 55.5644C82.678 55.5644 82.6596 55.5828 82.6596 55.6012C82.6412 55.6196 82.6412 55.6564 82.6596 55.6748C82.678 55.6932 82.6964 55.7116 82.7148 55.73L82.7332 55.7484C82.7516 55.7668 82.7516 55.7852 82.77 55.7852C82.77 55.8037 82.77 55.8221 82.7884 55.8405C82.8068 55.8589 82.8252 55.8589 82.862 55.8773C82.8804 55.8773 82.8988 55.8773 82.9172 55.8957C82.9356 55.9141 82.9541 55.9141 82.9541 55.9325C82.9541 55.9509 82.9725 55.9509 82.9725 55.9693V55.9877C82.9725 56.0061 82.9909 56.0429 83.0277 56.0613C83.0461 56.0797 83.0829 56.0797 83.1013 56.0797C83.1197 56.0797 83.1565 56.0981 83.1749 56.0981C83.1933 56.0981 83.2117 56.1165 83.2301 56.1165C83.2669 56.1349 83.3038 56.1717 83.3406 56.2086C83.3774 56.2454 83.4142 56.2822 83.451 56.3006C83.4694 56.319 83.4878 56.319 83.5062 56.3374C83.5062 56.3374 83.5246 56.3374 83.5246 56.3558C83.543 56.3742 83.5798 56.3926 83.6166 56.411C83.635 56.4294 83.6534 56.4294 83.6534 56.4478C83.6718 56.4478 83.6903 56.4662 83.6903 56.4662C83.7271 56.4846 83.7455 56.503 83.7823 56.5214C83.8007 56.5398 83.8191 56.5582 83.8375 56.5767C83.8375 56.5951 83.8559 56.5951 83.8559 56.6135C83.8743 56.6319 83.8927 56.6687 83.9295 56.6871C83.9479 56.7055 83.9847 56.7239 84.0215 56.7423C84.0215 56.7423 84.0399 56.7423 84.0399 56.7607C84.0768 56.7791 84.1136 56.8159 84.132 56.8343C84.1504 56.8527 84.1688 56.8711 84.1872 56.8711C84.1872 56.8895 84.2056 56.8895 84.2056 56.9079C84.224 56.9264 84.2424 56.9448 84.2792 56.9632C84.2976 56.9816 84.3344 56.9816 84.3712 57C84.408 57.0184 84.4633 57.0368 84.5185 57.0552C84.5737 57.0736 84.6105 57.092 84.6473 57.092C84.6841 57.092 84.7025 57.092 84.7393 57.0736C84.7577 57.0736 84.7761 57.0552 84.7945 57.0552C84.8498 57.0368 84.9234 57 85.0154 56.9632C85.1074 56.9263 85.1811 56.8895 85.2547 56.8711C85.3283 56.8527 85.4019 56.8343 85.4571 56.8159C85.4939 56.8159 85.5491 56.8159 85.586 56.8159C85.6044 56.8159 85.6228 56.8159 85.6596 56.8159C85.678 56.8159 85.7148 56.8159 85.7332 56.7975C85.77 56.7975 85.8068 56.7975 85.8436 56.7791C85.8988 56.7791 85.9357 56.7791 85.9909 56.7791C86.0093 56.7791 86.0461 56.7791 86.0645 56.7791C86.0829 56.7791 86.1013 56.7791 86.1197 56.7791C86.1565 56.7791 86.1933 56.7791 86.2117 56.7607C86.2117 56.7607 86.2117 56.7423 86.2301 56.7423C86.2301 56.7423 86.2485 56.7239 86.2669 56.7239C86.2853 56.7239 86.3037 56.7055 86.3222 56.7055C86.3222 56.7239 86.3406 56.7239 86.3406 56.7423C86.359 56.7607 86.3774 56.7791 86.3958 56.7975C86.4326 56.8159 86.4694 56.8343 86.5062 56.8343C86.543 56.8527 86.5614 56.8527 86.5982 56.8711C86.6166 56.8895 86.635 56.9079 86.6719 56.9079C86.7087 56.9079 86.7455 56.8895 86.7823 56.8711L86.8007 56.8527C86.8191 56.8527 86.8375 56.8343 86.8559 56.8343C86.8927 56.8159 86.9295 56.8159 86.9663 56.7975C87.0031 56.7975 87.0399 56.7975 87.0583 56.7791C87.0952 56.7791 87.1136 56.7607 87.132 56.7423C87.1504 56.7423 87.1504 56.7239 87.1688 56.7239C87.2056 56.7055 87.2608 56.6687 87.2976 56.6503C87.3344 56.6319 87.3528 56.6319 87.408 56.6135C87.4449 56.6135 87.4817 56.5951 87.5369 56.5767C87.5921 56.5767 87.6289 56.5583 87.6841 56.5398C87.7393 56.5214 87.7761 56.503 87.8314 56.4846C87.8866 56.4662 87.9418 56.4478 87.9786 56.4294C87.997 56.4294 88.0154 56.411 88.0338 56.411C88.0522 56.411 88.089 56.3926 88.1442 56.3926H88.1626C88.181 56.3926 88.1995 56.3926 88.2179 56.3926C88.2547 56.3926 88.2731 56.3742 88.2915 56.3742C88.3099 56.3742 88.3283 56.3558 88.3467 56.3558C88.3651 56.3558 88.3835 56.3558 88.4203 56.3558C88.4571 56.3558 88.4939 56.3742 88.5307 56.3742C88.5676 56.3742 88.586 56.3742 88.6044 56.3558C88.6044 56.3558 88.6228 56.3558 88.6412 56.3558C88.678 56.3558 88.7332 56.3558 88.7884 56.3558C88.8436 56.3558 88.8988 56.3742 88.9357 56.3926C88.9909 56.411 89.0277 56.4294 89.0645 56.4662C89.0829 56.4846 89.1013 56.503 89.1197 56.5214C89.1381 56.5398 89.1749 56.5767 89.1933 56.5951C89.2117 56.6135 89.2301 56.6135 89.2485 56.6319C89.2485 56.6319 89.2669 56.6319 89.2669 56.6503C89.2853 56.6687 89.2853 56.6871 89.2853 56.6871C89.2853 56.6871 89.2853 56.6871 89.2669 56.7055C89.2669 56.7239 89.2669 56.7423 89.2669 56.7791C89.2853 56.8159 89.3038 56.8527 89.3222 56.8895C89.3222 56.8895 89.3222 56.9079 89.3406 56.9079C89.359 56.9632 89.359 57 89.3774 57.0184C89.3958 57.0368 89.4326 57.0368 89.451 57.0368C89.4878 57.0368 89.5062 57.0368 89.5614 57.0368C89.5982 57.0368 89.635 57.0368 89.6534 57.0552C89.6903 57.0552 89.7087 57.0552 89.7455 57.0552C89.7639 57.0552 89.7823 57.0368 89.8007 57.0184C89.8191 57 89.8375 56.9816 89.8743 56.9816C89.9111 56.9816 89.9479 56.9816 89.9847 56.9816C90.0215 57 90.0583 57 90.1136 57C90.1504 57 90.2056 56.9816 90.224 56.9816C90.2424 56.9632 90.2424 56.9632 90.2424 56.9448C90.2424 56.9448 90.2424 56.9448 90.2424 56.9263C90.2424 56.9079 90.2608 56.9079 90.2976 56.9079C90.316 56.9079 90.3528 56.9263 90.408 56.9448C90.4264 56.9448 90.4449 56.9448 90.4817 56.9448C90.5001 56.9448 90.5185 56.9632 90.5369 56.9632C90.5553 56.9816 90.5921 57.0184 90.5921 57.0368C90.5921 57.0552 90.5553 57.0736 90.5553 57.0736C90.5553 57.0736 90.5737 57.0736 90.5921 57.092C90.6105 57.1104 90.6105 57.1288 90.6105 57.1288C90.6289 57.1288 90.6473 57.1104 90.6657 57.092C90.6841 57.092 90.7209 57.1104 90.7577 57.1288C90.7761 57.1472 90.8129 57.1472 90.8314 57.184C90.8498 57.2024 90.8498 57.2392 90.8682 57.276C90.8866 57.3129 90.905 57.3313 90.905 57.3681C90.905 57.4049 90.905 57.4601 90.9234 57.4969C90.9234 57.5337 90.9234 57.5705 90.9234 57.6073C90.9234 57.6441 90.8866 57.681 90.8866 57.7362C90.8866 57.7362 90.8866 57.7362 90.8682 57.7362C90.8498 57.7362 90.8498 57.773 90.8314 57.7914C90.8314 57.8098 90.8314 57.8466 90.8314 57.865C90.8314 57.8834 90.8314 57.9018 90.813 57.9202C90.7945 57.9386 90.7945 57.957 90.7761 57.9754L90.7577 57.9938C90.7393 58.0122 90.7209 58.049 90.7209 58.0859C90.7209 58.1043 90.7393 58.1227 90.7577 58.1595C90.7577 58.1595 90.7577 58.1779 90.7577 58.1963C90.7577 58.2147 90.7577 58.2515 90.7577 58.2699C90.7577 58.2883 90.7393 58.3067 90.7209 58.3067C90.7025 58.3067 90.6841 58.3251 90.6657 58.3435C90.6473 58.3619 90.6657 58.3987 90.6657 58.4171C90.6841 58.4356 90.7025 58.4356 90.7393 58.454C90.7761 58.4724 90.7945 58.4908 90.813 58.4908C90.8314 58.4908 90.813 58.5092 90.7945 58.5092C90.7761 58.5092 90.7577 58.5092 90.7393 58.5092C90.7209 58.5092 90.6841 58.5092 90.6657 58.5276C90.6473 58.546 90.6473 58.5644 90.6289 58.6012C90.6289 58.6196 90.6289 58.6196 90.6289 58.638C90.6289 58.6564 90.6289 58.6748 90.6105 58.6932C90.6105 58.7116 90.5921 58.73 90.5737 58.7484C90.5737 58.7484 90.5553 58.7484 90.5553 58.7668C90.5369 58.7852 90.5369 58.7852 90.5185 58.8036C90.5001 58.8221 90.4817 58.8221 90.4817 58.8405C90.4817 58.8589 90.4817 58.8773 90.5001 58.8957C90.5185 58.9141 90.5185 58.9325 90.5185 58.9693V58.9877C90.5185 59.0061 90.5001 59.0245 90.5185 59.0245C90.5185 59.0429 90.5369 59.0613 90.5737 59.0613C90.5921 59.0613 90.6105 59.0613 90.6289 59.0613H90.6473C90.6657 59.0613 90.6841 59.0613 90.7025 59.0797C90.7025 59.0797 90.7025 59.0797 90.7025 59.0981C90.7025 59.0981 90.6841 59.1165 90.6657 59.1165H90.6473C90.6289 59.1165 90.6105 59.1165 90.6105 59.1349V59.1533C90.6105 59.1533 90.6105 59.1533 90.6289 59.1717C90.6289 59.1717 90.6473 59.1717 90.6473 59.1902H90.6657C90.6841 59.1902 90.6841 59.2086 90.6841 59.2086H90.6657C90.6657 59.2086 90.6657 59.2086 90.6473 59.2086H90.6289C90.6289 59.2086 90.6289 59.2086 90.6289 59.227C90.6289 59.2454 90.6473 59.2638 90.6657 59.2822L90.6841 59.3006C90.7025 59.319 90.7209 59.319 90.7393 59.3374C90.7577 59.3374 90.7577 59.3558 90.7761 59.3558C90.7945 59.3558 90.7945 59.3558 90.813 59.3558C90.8498 59.3558 90.8682 59.3742 90.8866 59.3742C90.905 59.3742 90.905 59.3926 90.8866 59.3926C90.8866 59.3926 90.8866 59.3926 90.8682 59.3926H90.8498C90.8314 59.3926 90.813 59.411 90.813 59.411C90.813 59.4294 90.813 59.4478 90.8866 59.503C90.905 59.5214 90.9418 59.5398 90.9786 59.5767C91.0154 59.5951 91.0338 59.6319 91.0706 59.6503C91.1442 59.7055 91.2363 59.7975 91.2731 59.8343C91.2915 59.8527 91.2915 59.8527 91.3099 59.8711C91.3099 59.8711 91.3099 59.8711 91.3283 59.8895C91.3467 59.9079 91.3651 59.9448 91.4019 59.9632C91.4203 60 91.4571 60.0368 91.4755 60.0736C91.4939 60.092 91.4939 60.1104 91.4939 60.1288C91.4939 60.1472 91.5123 60.1656 91.5123 60.184C91.5307 60.2208 91.5491 60.2392 91.5676 60.2392C91.5676 60.2392 91.5676 60.2576 91.586 60.2576C91.6044 60.276 91.6228 60.3129 91.6412 60.3497C91.6412 60.3681 91.6412 60.3865 91.6412 60.4049C91.6412 60.4233 91.6596 60.4601 91.678 60.4785L91.6964 60.4969C91.6964 60.5153 91.7148 60.5521 91.7148 60.5889C91.6964 60.5889 91.678 60.6073 91.678 60.6441C91.678 60.681 91.7148 60.7546 91.7516 60.8098C91.77 60.8466 91.7884 60.865 91.8068 60.9018C91.8436 61.0122 91.8804 61.0859 91.9172 61.1779C91.9541 61.2699 91.9909 61.3803 92.0093 61.454C92.0277 61.5276 92.0093 61.5644 91.9909 61.5828C91.9909 61.6012 91.9725 61.6012 91.9725 61.6012C91.9725 61.6012 91.9725 61.6012 91.9541 61.6012C91.9172 61.6196 91.8988 61.638 91.8988 61.6564C91.8988 61.6748 91.8988 61.6932 91.9541 61.7484C91.9541 61.7668 91.9725 61.7668 91.9725 61.7852V61.8036C92.0093 61.9141 92.0829 62.0797 92.1197 62.2086C92.1565 62.3374 92.1749 62.4478 92.1749 62.5214C92.1749 62.5951 92.1749 62.6319 92.1565 62.6871C92.1381 62.7423 92.1013 62.7791 92.0461 62.8343C92.0277 62.8527 92.0277 62.8527 92.0093 62.8711C92.0093 62.8711 92.0093 62.8711 91.9909 62.8711C91.9725 62.8711 91.9357 62.8895 91.9172 62.9079C91.8988 62.9263 91.8804 62.9632 91.862 63.0184V63.0368V63.0552C91.8436 63.092 91.8252 63.1104 91.8068 63.1288H91.7884C91.77 63.1288 91.7332 63.1472 91.7332 63.2024C91.7148 63.2392 91.7148 63.3129 91.6964 63.3865C91.6964 63.4233 91.6964 63.4417 91.678 63.4785C91.6596 63.5521 91.6596 63.6073 91.6412 63.6625C91.6412 63.6809 91.6228 63.6994 91.6228 63.6994C91.6044 63.7178 91.6044 63.7362 91.586 63.7546C91.5676 63.773 91.5676 63.8098 91.5676 63.8282C91.5491 63.865 91.5307 63.9018 91.5123 63.9386C91.4939 63.957 91.4939 63.9938 91.4755 64.0122C91.4571 64.049 91.4387 64.049 91.4203 64.0859C91.4203 64.1043 91.4203 64.1411 91.4203 64.1595V64.1779C91.4203 64.2331 91.4387 64.3067 91.4387 64.3803C91.4387 64.4171 91.4387 64.454 91.4387 64.4724C91.4387 64.4908 91.4387 64.5092 91.4203 64.5276C91.4203 64.5644 91.4203 64.6196 91.4203 64.6748C91.4203 64.73 91.4387 64.7668 91.4571 64.8405C91.4755 64.8957 91.5123 64.9693 91.5307 65.0061C91.5491 65.0429 91.5676 65.0613 91.6044 65.0981C91.6412 65.1533 91.678 65.2086 91.7332 65.3006C91.7884 65.3926 91.8436 65.5214 91.8804 65.6319C91.8804 65.6503 91.8988 65.6687 91.8988 65.6687C91.9172 65.7239 91.9356 65.7791 91.9541 65.8159C91.9725 65.8527 91.9909 65.8711 92.0093 65.8895C92.0277 65.9079 92.0461 65.9448 92.0645 65.9816C92.0829 66 92.1013 66.0368 92.1197 66.0736C92.1381 66.092 92.1381 66.1288 92.1565 66.1472C92.1749 66.1656 92.1933 66.184 92.2117 66.2024C92.2301 66.2208 92.2485 66.2576 92.2669 66.276C92.3038 66.3129 92.3222 66.3681 92.3406 66.4233C92.359 66.4969 92.359 66.5705 92.359 66.6625C92.359 66.6994 92.359 66.7546 92.359 66.7914V66.8098C92.359 66.865 92.3406 66.9202 92.359 66.9754C92.359 67.0122 92.3774 67.049 92.3958 67.0859C92.3958 67.1043 92.3958 67.1043 92.3958 67.1227C92.3958 67.1411 92.3958 67.1595 92.4142 67.1963V67.2147C92.4142 67.2331 92.4142 67.2699 92.4326 67.2883L92.451 67.3067C92.4694 67.3435 92.4878 67.3803 92.4878 67.4355C92.4878 67.454 92.4878 67.4908 92.4878 67.5092C92.4878 67.546 92.4878 67.6012 92.4878 67.638C92.4878 67.6748 92.5062 67.7116 92.5246 67.73V67.7484C92.5246 67.7668 92.5246 67.7852 92.5246 67.8036V67.8221C92.5246 67.8405 92.5246 67.8589 92.543 67.8589C92.5614 67.8773 92.5798 67.8773 92.5798 67.8957C92.5982 67.9141 92.5982 67.9325 92.5798 67.9509C92.5614 67.9693 92.5614 67.9877 92.5614 68.0245C92.5614 68.0429 92.5798 68.0613 92.5798 68.0981C92.5798 68.1165 92.5982 68.1533 92.5982 68.1717V68.1902V68.2086C92.5982 68.2454 92.5982 68.2638 92.6166 68.3006C92.6166 68.319 92.635 68.319 92.6534 68.3374C92.6718 68.3558 92.6903 68.3926 92.7455 68.4294C92.7823 68.4662 92.8007 68.5214 92.8559 68.5767C92.8927 68.6135 92.9479 68.6503 92.9847 68.7055C93.0215 68.7423 93.0399 68.7975 93.0768 68.8527C93.0952 68.8895 93.132 68.9263 93.1504 68.9632C93.1504 68.9816 93.1504 68.9816 93.1688 69C93.1872 69.0368 93.1872 69.0736 93.2056 69.1288C93.2056 69.1288 93.2056 69.1472 93.2056 69.1656C93.2056 69.2024 93.224 69.2576 93.2424 69.2944C93.2424 69.3313 93.2608 69.3497 93.2792 69.3865C93.2976 69.4417 93.3344 69.4969 93.3712 69.5705C93.3712 69.5705 93.3712 69.5705 93.3712 69.5889C93.3896 69.6257 93.408 69.6625 93.4264 69.6994C93.4633 69.7546 93.5001 69.8282 93.5369 69.865L93.5553 69.8834C93.5737 69.9018 93.5921 69.9202 93.5921 69.9386C93.6105 69.9754 93.6289 69.9938 93.6289 70.0306C93.6289 70.049 93.6289 70.049 93.6289 70.0675C93.6289 70.1043 93.6289 70.1411 93.6289 70.1779C93.6289 70.2331 93.6289 70.2699 93.6105 70.3067C93.5921 70.3251 93.5737 70.3435 93.5553 70.3435C93.5369 70.3435 93.5369 70.3435 93.5185 70.3435C93.5001 70.3435 93.4817 70.3619 93.4817 70.3803C93.4817 70.3987 93.5001 70.4355 93.5185 70.4908C93.5369 70.5276 93.5553 70.5828 93.5737 70.6196C93.5737 70.638 93.5921 70.6564 93.5921 70.6748C93.6105 70.73 93.6289 70.7484 93.6289 70.7852V70.8036C93.6289 70.8221 93.6105 70.8589 93.6105 70.8773C93.6105 70.8957 93.6289 70.9141 93.6657 70.9141C93.6841 70.9141 93.6841 70.8957 93.7025 70.8957H93.7209C93.7393 70.8957 93.7393 70.8957 93.7577 70.9141C93.7577 70.9141 93.7577 70.9325 93.7761 70.9325C93.7761 70.9509 93.7761 70.9693 93.7761 70.9693C93.7761 70.9877 93.7945 71.0061 93.813 71.0061H93.8314C93.8314 71.0061 93.8498 71.0061 93.8682 71.0245C93.8866 71.0429 93.9234 71.0613 93.9602 71.0797C93.9602 71.0797 93.9602 71.0981 93.9786 71.0981C94.0154 71.1349 94.0338 71.1533 94.0706 71.1717C94.1074 71.1902 94.1442 71.1901 94.1811 71.1901C94.2179 71.1901 94.2363 71.1533 94.2731 71.1349C94.2915 71.1349 94.2915 71.1165 94.3099 71.1165C94.3467 71.0981 94.4019 71.0613 94.4755 71.0429C94.5123 71.0245 94.5676 71.0245 94.6228 71.0061C94.678 71.0061 94.7332 70.9877 94.77 70.9877C94.8252 70.9693 94.8804 70.9693 94.8988 70.9509C94.9173 70.9325 94.9356 70.9141 94.9356 70.9141L94.9541 70.8957C94.9725 70.8773 94.9909 70.8773 95.0093 70.8773C95.0277 70.8773 95.0461 70.8773 95.0645 70.8773C95.1013 70.8773 95.1565 70.8773 95.1933 70.8773C95.2301 70.8773 95.2669 70.8773 95.3037 70.8589H95.3222C95.359 70.8589 95.3958 70.8589 95.451 70.8589C95.4694 70.8589 95.5062 70.8589 95.5246 70.8589C95.5614 70.8773 95.6166 70.8957 95.6534 70.8957C95.7087 70.9141 95.7639 70.9325 95.8007 70.9141C95.8191 70.9141 95.8559 70.8957 95.8743 70.8957C95.8927 70.8957 95.8927 70.8957 95.9111 70.8773C95.9479 70.8773 95.9663 70.8773 96.0031 70.8589C96.04 70.8589 96.0768 70.8589 96.0952 70.8589C96.1136 70.8589 96.132 70.8405 96.132 70.8221H96.1504C96.1872 70.8036 96.224 70.7852 96.2976 70.7852C96.316 70.7852 96.316 70.7852 96.3344 70.7852C96.408 70.7668 96.5185 70.7484 96.5921 70.7116C96.6841 70.6748 96.7577 70.638 96.7945 70.5828C96.8314 70.546 96.8498 70.5276 96.8682 70.4908C96.8866 70.4724 96.905 70.4356 96.9234 70.4171C96.9418 70.3987 96.9786 70.3803 97.0154 70.3619C97.0338 70.3619 97.0522 70.3435 97.089 70.3435C97.1442 70.3251 97.1995 70.2699 97.2547 70.2147C97.2915 70.1595 97.3283 70.1043 97.3651 70.0306C97.4019 69.9754 97.4755 69.9018 97.5123 69.865C97.5123 69.865 97.5123 69.865 97.5307 69.865C97.5492 69.8466 97.586 69.8466 97.6044 69.8282C97.6412 69.8098 97.6596 69.8098 97.678 69.8098C97.6964 69.8098 97.7332 69.8098 97.7332 69.7914C97.7516 69.773 97.7516 69.7546 97.7516 69.7362C97.7516 69.6994 97.77 69.6625 97.7884 69.6257C97.7884 69.6073 97.8068 69.6073 97.8068 69.5889C97.8068 69.5889 97.8068 69.5705 97.8252 69.5705C97.8252 69.5521 97.8436 69.5521 97.8436 69.5337C97.862 69.4969 97.8988 69.4417 97.9357 69.4049L97.9541 69.3865C97.9725 69.3497 98.0093 69.3128 98.0093 69.276C98.0093 69.2576 98.0093 69.2392 98.0277 69.2392C98.0277 69.2208 98.0277 69.2208 98.0461 69.2208C98.0645 69.184 98.0645 69.184 98.1013 69.1472C98.1197 69.1288 98.1381 69.1288 98.1565 69.1104C98.1749 69.092 98.2117 69.0736 98.2301 69.0552L98.2485 69.0368C98.2485 69.0368 98.2485 69.0368 98.2669 69.0184C98.2853 69 98.3037 68.9632 98.3406 68.9448C98.359 68.9263 98.3958 68.9079 98.4326 68.8895C98.451 68.8895 98.4694 68.8711 98.4878 68.8527C98.5246 68.8343 98.5614 68.7975 98.5798 68.7607C98.5982 68.7239 98.5982 68.6871 98.6166 68.6319C98.635 68.5951 98.635 68.5582 98.6534 68.5214C98.6718 68.4662 98.7087 68.3926 98.7271 68.3558C98.7271 68.3374 98.7271 68.3374 98.7455 68.3374C98.7639 68.319 98.7639 68.3006 98.7639 68.2822C98.7823 68.2638 98.7823 68.227 98.7823 68.2086C98.7823 68.1902 98.7639 68.1717 98.7639 68.1533C98.7639 68.1349 98.7639 68.1349 98.7639 68.1165C98.7639 68.0981 98.7639 68.0797 98.7823 68.0613V68.0429C98.7823 68.0245 98.7823 68.0061 98.7639 67.9877H98.7455C98.7271 67.9877 98.7087 67.9693 98.7087 67.9693C98.6902 67.9509 98.6719 67.9509 98.6719 67.9325C98.6719 67.9141 98.6534 67.8957 98.6534 67.8773V67.8589C98.6534 67.8405 98.6534 67.8221 98.6534 67.8036C98.6718 67.7852 98.6902 67.7668 98.7087 67.73C98.7455 67.6932 98.7823 67.6564 98.8191 67.638C98.8559 67.6196 98.8743 67.6012 98.9111 67.5828C98.9479 67.5644 99.0215 67.5644 99.0768 67.546C99.132 67.5276 99.2056 67.5276 99.2608 67.5092C99.316 67.4908 99.3712 67.4724 99.408 67.454C99.4633 67.4356 99.5001 67.4171 99.5369 67.3987C99.5737 67.3803 99.5921 67.3435 99.6105 67.3251C99.6289 67.3067 99.6473 67.2699 99.6657 67.2515C99.6841 67.2331 99.6841 67.1963 99.6841 67.1779C99.6841 67.1595 99.6657 67.1411 99.6657 67.1227C99.6657 67.1043 99.6657 67.0859 99.6841 67.049C99.7025 67.0122 99.7209 66.957 99.7393 66.9202C99.7577 66.8834 99.7577 66.865 99.7577 66.8282C99.7577 66.7914 99.7577 66.7546 99.7577 66.7178C99.7577 66.6809 99.7577 66.6441 99.7577 66.6073C99.7577 66.5889 99.7393 66.5705 99.7393 66.5705C99.7209 66.5705 99.7209 66.5705 99.7025 66.5337C99.7025 66.4969 99.6841 66.4233 99.6841 66.3681C99.6841 66.3129 99.6657 66.2944 99.6657 66.2392C99.6657 66.2024 99.6473 66.1472 99.6473 66.1104C99.6289 66.0736 99.6289 66.0552 99.6105 66.0184C99.5921 66 99.5921 65.9632 99.5737 65.9447C99.5553 65.9263 99.5369 65.9079 99.5185 65.8895C99.5001 65.8711 99.5001 65.8527 99.5001 65.8159C99.5001 65.7791 99.5185 65.7239 99.5369 65.6871C99.5553 65.6503 99.5737 65.6319 99.5921 65.6135C99.6105 65.5951 99.6289 65.5583 99.6473 65.5398C99.6657 65.5214 99.7025 65.503 99.7209 65.4846C99.7577 65.4662 99.7761 65.4478 99.8129 65.4294C99.8314 65.411 99.8498 65.3742 99.8866 65.3558C99.9234 65.3374 99.9602 65.3006 99.9786 65.2822C99.997 65.2638 100.015 65.2638 100.052 65.227C100.071 65.2086 100.107 65.1533 100.144 65.1165C100.181 65.0797 100.218 65.0613 100.255 65.0245C100.273 65.0061 100.291 64.9877 100.31 64.9509C100.328 64.9141 100.384 64.8589 100.42 64.8221C100.457 64.7852 100.494 64.7668 100.586 64.73C100.678 64.6932 100.807 64.6564 100.917 64.6196C101.009 64.5828 101.064 64.546 101.101 64.5276C101.157 64.5092 101.193 64.4908 101.23 64.4724C101.267 64.454 101.304 64.454 101.304 64.4356C101.322 64.4171 101.322 64.3987 101.322 64.3803C101.322 64.3619 101.322 64.3251 101.341 64.3067L101.359 64.2883C101.377 64.2883 101.396 64.2699 101.414 64.2515C101.433 64.2331 101.433 64.2331 101.433 64.2147C101.451 64.1963 101.488 64.1595 101.506 64.1227C101.543 64.0859 101.561 64.0675 101.58 64.0306C101.598 63.9938 101.617 63.957 101.635 63.9018C101.653 63.865 101.653 63.8282 101.653 63.773C101.653 63.7178 101.635 63.681 101.635 63.6257C101.635 63.5889 101.635 63.5521 101.635 63.5153C101.635 63.4785 101.617 63.4417 101.617 63.4049C101.617 63.3681 101.617 63.3313 101.617 63.2944C101.617 63.2576 101.635 63.2392 101.635 63.2208C101.635 63.2024 101.635 63.184 101.635 63.1472C101.635 63.1288 101.617 63.092 101.617 63.0736C101.617 63.0552 101.617 63.0368 101.635 63C101.653 62.9816 101.653 62.9632 101.653 62.9263C101.653 62.9079 101.617 62.8711 101.617 62.8343C101.598 62.7975 101.617 62.7791 101.617 62.7423C101.617 62.7055 101.617 62.6503 101.617 62.6319C101.617 62.5951 101.598 62.5951 101.598 62.5767C101.598 62.5583 101.58 62.5398 101.58 62.5214C101.58 62.503 101.58 62.4846 101.598 62.4662C101.617 62.4478 101.635 62.411 101.635 62.3742C101.653 62.3374 101.653 62.3006 101.635 62.2822C101.635 62.2822 101.635 62.2822 101.635 62.2638C101.635 62.2454 101.617 62.227 101.598 62.2086C101.58 62.1902 101.561 62.1533 101.543 62.1349C101.525 62.1165 101.506 62.1165 101.488 62.1165C101.469 62.1165 101.451 62.0981 101.433 62.0797C101.414 62.0613 101.377 62.0613 101.359 62.0429C101.322 62.0245 101.322 61.9877 101.322 61.9509C101.322 61.9325 101.341 61.8957 101.341 61.8773C101.341 61.8405 101.322 61.8036 101.304 61.7668C101.304 61.7484 101.285 61.73 101.267 61.7116C101.249 61.6748 101.23 61.6564 101.23 61.6012C101.212 61.5644 101.212 61.4908 101.212 61.4355C101.212 61.4171 101.212 61.3987 101.212 61.3987C101.212 61.3803 101.23 61.3619 101.23 61.3435C101.23 61.3251 101.23 61.2883 101.23 61.2699C101.23 61.2515 101.212 61.2515 101.212 61.2331C101.212 61.2147 101.212 61.1963 101.212 61.1595C101.212 61.1411 101.23 61.1043 101.23 61.0859C101.249 61.0675 101.267 61.049 101.267 61.0122C101.267 60.9938 101.267 60.9754 101.267 60.957C101.249 60.9386 101.23 60.9202 101.212 60.9018C101.193 60.8834 101.175 60.8834 101.175 60.865L101.157 60.8466C101.138 60.8282 101.138 60.8282 101.12 60.8098C101.083 60.773 101.064 60.7546 101.046 60.7178C101.028 60.6809 101.028 60.6257 101.028 60.5521C101.028 60.4785 101.064 60.4049 101.083 60.3313C101.101 60.2576 101.138 60.184 101.175 60.1472C101.193 60.1288 101.193 60.1104 101.212 60.092C101.23 60.0736 101.249 60.0552 101.267 60.0184C101.304 59.9816 101.322 59.9263 101.341 59.8895C101.359 59.8527 101.359 59.8159 101.377 59.7791C101.377 59.7423 101.396 59.7239 101.414 59.6871C101.433 59.6687 101.451 59.6503 101.469 59.6319C101.488 59.6135 101.488 59.5951 101.506 59.5583C101.506 59.5398 101.506 59.5214 101.506 59.503C101.506 59.4846 101.506 59.4846 101.525 59.4662C101.543 59.4478 101.561 59.4478 101.598 59.4294C101.635 59.411 101.653 59.411 101.672 59.3926C101.69 59.3742 101.709 59.3558 101.727 59.3374C101.745 59.319 101.764 59.2822 101.801 59.2454C101.837 59.2086 101.893 59.1717 101.93 59.1349C101.966 59.0981 101.966 59.0797 101.985 59.0613C101.985 59.0613 102.003 59.0613 102.003 59.0429C102.022 59.0429 102.022 59.0245 102.04 59.0245C102.077 59.0061 102.114 58.9509 102.132 58.9141C102.15 58.8957 102.15 58.8773 102.15 58.8589C102.169 58.8221 102.206 58.7852 102.224 58.7484C102.279 58.6748 102.334 58.6196 102.39 58.5644C102.408 58.546 102.445 58.5092 102.463 58.4908L102.482 58.4724C102.518 58.4356 102.555 58.3987 102.61 58.3435C102.629 58.3251 102.647 58.3067 102.684 58.2883C102.703 58.2883 102.703 58.2699 102.721 58.2699C102.758 58.2515 102.776 58.2147 102.813 58.1963C102.831 58.1779 102.868 58.1411 102.887 58.1227L102.905 58.1043C102.942 58.0859 102.96 58.049 102.997 58.0306C103.015 58.0122 103.034 58.0122 103.052 57.9938C103.071 57.9938 103.071 57.9754 103.089 57.9754C103.089 57.9754 103.107 57.9754 103.107 57.957C103.163 57.9202 103.218 57.8834 103.31 57.8466C103.328 57.8466 103.328 57.8282 103.347 57.8282C103.384 57.8098 103.402 57.8098 103.439 57.7914C103.476 57.773 103.531 57.7546 103.568 57.7178C103.623 57.681 103.678 57.6073 103.752 57.5153C103.752 57.5153 103.752 57.4969 103.77 57.4969C103.807 57.4601 103.844 57.4233 103.88 57.3681C103.936 57.3129 103.991 57.2392 104.046 57.184C104.064 57.1656 104.083 57.1472 104.101 57.1288C104.138 57.092 104.175 57.0552 104.212 57C104.249 56.9632 104.267 56.9079 104.304 56.8711C104.322 56.8343 104.341 56.7975 104.359 56.7791C104.377 56.7607 104.377 56.7423 104.396 56.7239C104.414 56.7055 104.433 56.6871 104.433 56.6687C104.451 56.6503 104.451 56.6319 104.469 56.6135C104.506 56.5583 104.561 56.4662 104.598 56.411C104.617 56.3742 104.617 56.3374 104.635 56.319C104.635 56.3006 104.653 56.2822 104.653 56.2638C104.672 56.2086 104.727 56.1349 104.745 56.0797C104.745 56.0797 104.745 56.0613 104.764 56.0613C104.782 56.0429 104.782 56.0245 104.801 56.0245C104.819 56.0061 104.819 55.9693 104.819 55.9693C104.819 55.9509 104.837 55.9509 104.837 55.9325C104.837 55.9141 104.837 55.8957 104.837 55.8589C104.837 55.8221 104.856 55.8036 104.874 55.7668C104.874 55.7668 104.874 55.7484 104.893 55.7484C104.911 55.73 104.93 55.73 104.93 55.7116C104.948 55.6932 104.985 55.6564 105.022 55.5828C105.058 55.5092 105.114 55.3619 105.132 55.2883C105.15 55.2147 105.169 55.1779 105.169 55.1411C105.169 55.1227 105.169 55.1043 105.169 55.0859C105.187 55.0306 105.187 54.9938 105.206 54.957C105.224 54.9202 105.224 54.9018 105.242 54.865C105.261 54.8098 105.242 54.7546 105.242 54.7178C105.298 54.5153 105.298 54.4785 105.298 54.4417Z" fill="#1A182B"/>
<path d="M15.5369 51.6257L11.8559 42.0184L8.10132 51.6257H15.5369ZM4.21788 57.6625L10.9725 40.6012H12.7762L19.586 57.6625H17.9111L16.089 53.0613H7.58598L5.7823 57.6625H4.21788Z" fill="#1A182B"/>
<path d="M21.4817 57.6626V47.0982H19.0891V45.7915H21.4817V43.27C21.4817 41.2454 22.3099 40.3252 24.3344 40.3252C24.7762 40.3252 25.2547 40.4908 25.678 40.5829V41.724C25.4019 41.6688 25.0891 41.6319 24.813 41.6319C22.8805 41.6319 22.8252 42.6074 22.8989 44.3007V45.8099H25.586V47.1166H22.8989V57.681H21.4817V57.6626Z" fill="#1A182B"/>
<path d="M28.5676 57.6626H27.1504V48.4785C27.1688 47.5583 27.0768 46.6196 27.04 45.8098H28.5124L28.586 47.5583H28.6412C29.0645 46.362 30.132 45.4969 31.3099 45.4601C31.7884 45.4417 32.2486 45.4601 32.7271 45.4785V46.8405C32.451 46.8221 32.1381 46.7485 31.8436 46.7485C29.7455 46.7485 28.6228 48.2577 28.586 50.5215V57.6626H28.5676Z" fill="#1A182B"/>
<path d="M35.2854 57.6625H33.8682V45.8098H35.2854V57.6625ZM35.3958 42.3681H33.7393V40.6012H35.3958V42.3681Z" fill="#1A182B"/>
<path d="M45.3897 49.4356C45.2792 47.6135 44.1197 46.7485 42.1504 46.7485C39.9786 46.7485 38.6351 49.0123 38.6351 51.7178C38.6351 54.4417 39.9786 56.7239 42.1504 56.7239C43.9909 56.7239 45.2608 55.5828 45.3897 53.9632H46.9173C46.5308 56.6871 44.9848 58.0307 42.2792 58.0307C38.7271 58.0307 37.0891 54.9754 37.0891 51.7546C37.0891 48.5337 38.8559 45.4785 42.3897 45.4785C44.8191 45.4785 46.8068 46.9509 46.9173 49.4724H45.3897V49.4356Z" fill="#1A182B"/>
<path d="M51.7025 56.7055C54.7946 56.7055 55.3835 54.1472 55.2547 51.6809C53.2485 51.7545 49.0338 51.368 49.0338 54.3496C49.0338 55.9509 50.267 56.7055 51.7025 56.7055ZM55.2363 49.2883C55.089 47.3558 54.0952 46.73 52.4203 46.73C50.9295 46.73 49.6964 47.1717 49.5124 48.7913H48.0032C48.3528 46.3619 50.1749 45.4417 52.4387 45.4417C55.0522 45.4417 56.6903 46.638 56.6535 49.3619V54.9938C56.6351 55.914 56.7271 56.8527 56.7639 57.6625H55.2915L55.2363 55.914H55.1811L55.1074 56.0797C54.5921 57.0736 53.0093 58.0122 51.3897 58.0122C49.1995 58.0122 47.451 56.6686 47.451 54.3496C47.451 52.7484 48.4265 51.5153 49.8436 50.9263C51.4265 50.2453 53.4878 50.4846 55.1995 50.3926V49.2883H55.2363Z" fill="#1A182B"/>
<path d="M60.5737 57.6625H59.1565V48.4785C59.1565 47.5582 59.0829 46.6196 59.0461 45.8098H60.5185L60.5921 47.5582L60.6473 47.6135C61.4756 46.1411 62.8191 45.4601 64.3651 45.4601C68.2486 45.4601 68.543 48.8834 68.543 50.2638V57.6809H67.1259V50.0245C67.1259 47.9631 65.948 46.7668 64.0154 46.7668C61.678 46.7668 60.6105 48.7362 60.6105 50.8527V57.6625H60.5737Z" fill="#1A182B"/>
<path d="M17.2486 60.7546V71.7792C17.359 74.8712 19.1443 76.7485 21.9418 76.7485C24.7394 76.7485 26.5246 74.8896 26.6351 71.7792V60.7546H28.1627V71.816C28.1075 75.4786 26.0645 78.1657 21.9234 78.1657C17.7823 78.1657 15.7762 75.4786 15.7209 71.816V60.7546H17.2486Z" fill="#1A182B"/>
<path d="M32.6167 77.816H31.1995V68.6319C31.1995 67.7117 31.1259 66.773 31.0891 65.9632H32.5614L32.6351 67.7117L32.6903 67.7669C33.5185 66.2945 34.8621 65.6135 36.4081 65.6135C40.2915 65.6135 40.586 69.0368 40.586 70.4172V77.8344H39.1688V70.1779C39.1688 68.1166 37.9909 66.9203 36.0584 66.9203C33.721 66.9203 32.6535 68.8896 32.6535 71.0062V77.816H32.6167Z" fill="#1A182B"/>
<path d="M44.5798 77.816H43.1627V65.9633H44.5798V77.816ZM44.7087 62.5399H43.0522V60.7731H44.7087V62.5399Z" fill="#1A182B"/>
<path d="M51.8866 66.9018C49.0338 66.9018 47.8927 69.681 47.8927 71.8896C47.8927 74.0797 49.0338 76.8773 51.8866 76.8773C54.7394 76.8773 55.8805 74.0981 55.8805 71.8896C55.8805 69.6994 54.7394 66.9018 51.8866 66.9018ZM57.4265 71.8896C57.4265 75 55.678 78.1656 51.905 78.1656C48.132 78.1656 46.3835 75 46.3835 71.8896C46.3835 68.7791 48.132 65.6135 51.905 65.6135C55.678 65.5951 57.4265 68.7607 57.4265 71.8896Z" fill="#1A182B"/>
<path d="M60.5737 77.816H59.1565V68.6319C59.1565 67.7117 59.0829 66.773 59.0461 65.9632H60.5185L60.5921 67.7117L60.6473 67.7669C61.4756 66.2945 62.8191 65.6135 64.3651 65.6135C68.2486 65.6135 68.543 69.0368 68.543 70.4172V77.8344H67.1259V70.1779C67.1259 68.1166 65.948 66.9203 64.0154 66.9203C61.678 66.9203 60.6105 68.8896 60.6105 71.0062V77.816H60.5737Z" fill="#1A182B"/>
<path d="M108.353 77.0061H108.15V76.9509H108.629V77.0061H108.426V77.5767H108.353V77.0061Z" fill="#1A182B"/>
<path d="M109.236 77.3006C109.236 77.2086 109.218 77.0982 109.236 77.0245C109.218 77.0982 109.181 77.1718 109.163 77.2638L109.052 77.5767H108.997L108.887 77.2822C108.85 77.1902 108.831 77.1166 108.813 77.043C108.813 77.1166 108.813 77.227 108.795 77.319L108.776 77.5951H108.703L108.739 76.9509H108.85L108.96 77.2638C108.979 77.3374 109.015 77.411 109.015 77.4847C109.034 77.4295 109.052 77.3558 109.089 77.2638L109.199 76.9509H109.31L109.347 77.5951H109.273L109.236 77.3006Z" fill="#1A182B"/>
<path d="M108.776 76.454C108.316 76.454 107.93 76.8405 107.93 77.3006C107.93 77.7607 108.316 78.1472 108.776 78.1472C109.236 78.1472 109.623 77.7607 109.623 77.3006C109.604 76.8405 109.236 76.454 108.776 76.454ZM108.776 78.2392C108.261 78.2392 107.837 77.8159 107.837 77.3006C107.837 76.7853 108.261 76.3619 108.776 76.3619C109.291 76.3619 109.715 76.7853 109.715 77.3006C109.696 77.8159 109.273 78.2392 108.776 78.2392Z" fill="#1A182B"/>
</svg>
