<svg width="84" height="60" viewBox="0 0 84 60" fill="none" xmlns="http://www.w3.org/2000/svg">
<g clip-path="url(#clip0_123_5094)">
<path d="M71.9907 43.846V36.1652H70.0686V37.0132C69.7433 36.6811 69.3543 36.418 68.925 36.2396C68.4958 36.0612 68.0349 35.9711 67.57 35.9748C65.4908 35.9748 63.9175 37.7053 63.9175 40.0132C63.9175 42.3208 65.4873 44.0448 67.57 44.0448C68.035 44.0487 68.4959 43.9587 68.9253 43.7802C69.3546 43.6017 69.7435 43.3384 70.0686 43.006V43.846H71.9907ZM70.2579 40.006C70.2579 40.3476 70.1822 40.6848 70.0361 40.9935C69.89 41.3022 69.6772 41.5747 69.4131 41.7912C69.149 42.0077 68.8401 42.1629 68.5088 42.2456C68.1774 42.3283 67.8318 42.3364 67.497 42.2694C67.049 42.1806 66.6375 41.9609 66.3144 41.6382C65.9913 41.3154 65.7712 40.9042 65.6818 40.4563C65.5926 40.0086 65.6383 39.5444 65.8132 39.1227C65.9882 38.7009 66.2844 38.3407 66.6644 38.0875C67.0121 37.8555 67.4163 37.7222 67.8338 37.7017C68.2513 37.6812 68.6666 37.7744 69.0353 37.9713C69.4041 38.1681 69.7125 38.4614 69.9278 38.8197C70.1431 39.178 70.2572 39.588 70.2579 40.006ZM57.7306 40.006C57.7332 39.5389 57.8775 39.0835 58.1445 38.7001C58.4115 38.3168 58.7886 38.0235 59.2259 37.8591C59.6632 37.6945 60.1402 37.6662 60.594 37.7779C61.0477 37.8897 61.457 38.1363 61.7679 38.4853L63.065 37.35C62.6606 36.8885 62.1564 36.5251 61.5906 36.2875C61.0248 36.05 60.4124 35.9445 59.7997 35.979C59.187 36.0135 58.5903 36.1872 58.0548 36.4868C57.5193 36.7865 57.0591 37.2042 56.7091 37.7082C56.2415 38.3824 55.9909 39.1833 55.9909 40.0038C55.9909 40.8243 56.2415 41.6252 56.7091 42.2994C57.0591 42.8035 57.5193 43.2212 58.0548 43.5208C58.5903 43.8204 59.187 43.9941 59.7997 44.0286C60.4124 44.0632 61.0248 43.9576 61.5906 43.7201C62.1564 43.4825 62.6606 43.1192 63.065 42.6576L61.7679 41.5212C61.5366 41.7842 61.2485 41.9912 60.9253 42.1263C60.6022 42.2615 60.2525 42.3212 59.9029 42.3011C59.5532 42.281 59.2127 42.1815 58.9072 42.0102C58.6017 41.8389 58.3392 41.6002 58.1396 41.3124C57.873 40.9273 57.7303 40.47 57.7306 40.0016V40.006ZM54.7713 33.4776C54.7706 33.2308 54.6966 32.9897 54.5587 32.7849C54.4207 32.5802 54.2252 32.421 53.9967 32.3275C53.8259 32.2574 53.6418 32.226 53.4575 32.2355C53.2731 32.245 53.0932 32.2951 52.9306 32.3824C52.7679 32.4696 52.6266 32.5918 52.5168 32.7402C52.4069 32.8885 52.3313 33.0593 52.2953 33.2403C52.2594 33.4214 52.2641 33.6082 52.3091 33.7873C52.3541 33.9663 52.4383 34.1331 52.5556 34.2757C52.6729 34.4183 52.8204 34.5331 52.9874 34.6118C53.1544 34.6905 53.3368 34.7311 53.5214 34.7308C53.8525 34.7305 54.1701 34.599 54.4045 34.3652C54.6387 34.1315 54.7707 33.8144 54.7713 33.4836V33.4776ZM48.4274 37.702H51.1187V36.1652H46.5053V43.846H48.4274V37.702ZM44.8235 33.862V32.1312C42.4208 32.1312 41.3581 33.1868 41.3581 35.5868V43.846H43.2813V37.702H44.7231V36.1652H43.2861V35.588C43.2861 34.388 43.748 33.8572 44.8235 33.8572V33.862ZM38.1237 43.846H40.2377L34.8549 31.9408L29.4778 43.846H31.5882L32.3263 42.2148L32.6082 41.5892H37.1061L37.388 42.2148L38.1284 43.846H38.1237ZM36.3668 39.9588H33.3475L34.8593 36.6128L36.3715 39.9588H36.3668ZM21.7084 43.846H23.6307V40.006C23.6307 37.4136 22.4616 35.9676 20.3628 35.9676C19.3856 35.9676 18.6014 36.2872 18.0525 36.8804V36.1592H16.1337V43.846H18.0561V40.006C18.0561 38.534 18.7134 37.6984 19.8822 37.6984C21.0513 37.6984 21.7086 38.5304 21.7086 40.006L21.7084 43.846ZM14.2615 33.4776C14.2607 33.2308 14.1866 32.9898 14.0487 32.7851C13.9108 32.5805 13.7153 32.4213 13.4869 32.3278C13.3162 32.2577 13.1321 32.2262 12.9479 32.2356C12.7636 32.245 12.5837 32.2951 12.4211 32.3822C12.2585 32.4694 12.1172 32.5915 12.0073 32.7398C11.8975 32.888 11.8218 33.0587 11.7858 33.2397C11.7377 33.4817 11.7624 33.7326 11.857 33.9606C11.9515 34.1885 12.1116 34.3833 12.3169 34.5202C12.488 34.6342 12.6845 34.7043 12.8891 34.7244C13.0937 34.7445 13.3001 34.714 13.4901 34.6355C13.719 34.5407 13.9145 34.38 14.0519 34.1738C14.1892 33.9677 14.2622 33.7253 14.2615 33.4776ZM13.9728 36.1652H12.0492V43.846H13.971V36.1652H13.9728ZM54.4838 36.1652H52.5605V43.846H54.4826V36.1652H54.4838Z" fill="#1A182B"/>
<path d="M68.2943 17.7692H71.6581V16.0384H62.8156V17.7692H66.1803V27.562H68.2943V17.7692ZM56.7294 27.5644H61.5345V25.8336H60.1889V17.7692H61.5345V16.0384H56.7294V17.7692H58.075V25.8336H56.7294V27.5644ZM51.7797 24.4916H55.5279V22.9616H51.7797V24.4972V24.4916ZM50.0976 23.7244C50.0976 21.4996 48.3651 19.6856 46.2523 19.6856C45.5772 19.6846 44.9126 19.8527 44.3191 20.1746C43.7257 20.4965 43.2224 20.9619 42.8552 21.5284C42.4887 22.0949 42.2703 22.7442 42.2198 23.417C42.1694 24.0897 42.2886 24.7644 42.5664 25.3791C42.8446 25.994 43.2726 26.5293 43.8113 26.9358C44.625 27.5501 45.6409 27.834 46.6551 27.7305C47.6694 27.6271 48.607 27.1439 49.2799 26.378L47.9828 25.2416C47.767 25.4888 47.5006 25.6867 47.2017 25.822C46.9028 25.9574 46.5783 26.0269 46.2502 26.026C45.7106 26.0247 45.1882 25.8354 44.7731 25.4906C44.3579 25.1459 44.0759 24.6672 43.9756 24.1369H50.0816C50.0953 24.0003 50.1006 23.8625 50.0976 23.7244ZM44.0635 22.988C44.2227 22.5321 44.5191 22.1365 44.9121 21.8557C45.305 21.5749 45.7753 21.4226 46.2582 21.4197C47.1879 21.42 47.9724 22.0752 48.2611 22.988H44.0635ZM41.7416 27.5644L39.1785 23.7244L41.7416 19.8832H39.5468L37.4908 22.9616H36.1613V16.0384H34.2449V27.5596H36.1669V24.4913H37.4908L39.5412 27.5644H41.7416ZM30.1224 19.8832V20.7312C29.7967 20.3992 29.4075 20.1362 28.9781 19.9578C28.5486 19.7794 28.0876 19.6893 27.6226 19.6928C25.5434 19.6928 23.9703 21.4236 23.9703 23.7312C23.9703 26.0391 25.5401 27.7628 27.6226 27.7628C28.0877 27.7666 28.5487 27.6766 28.9782 27.4981C29.4077 27.3197 29.7969 27.0566 30.1224 26.7244V27.5724H32.0501V19.8832H30.1224ZM28.0075 26.0287C27.5508 26.0286 27.1043 25.8932 26.7245 25.6396C26.3446 25.386 26.0483 25.0256 25.8731 24.6039C25.6981 24.1822 25.6524 23.7181 25.7415 23.2703C25.8307 22.8226 26.0508 22.4114 26.3739 22.0889C26.697 21.7663 27.1084 21.5466 27.5563 21.4576C28.0041 21.3687 28.4683 21.4143 28.8902 21.5889C29.3121 21.7635 29.6729 22.0592 29.9269 22.4386C30.1809 22.818 30.3169 23.2642 30.3175 23.7208C30.3202 24.1782 30.186 24.6259 29.9323 25.0065C29.6785 25.387 29.3168 25.683 28.8936 25.8564C28.6124 25.9719 28.3115 26.0304 28.0075 26.0287ZM17.163 21.052L12.0671 15.6588V27.5644H14.1808V20.4104L17.1612 23.5788L20.1404 20.4104V27.5644H22.2553V15.6588L17.1612 21.052H17.163Z" fill="#1A182B"/>
<path d="M83.6839 60V16.154H81.3736V57.6921H53.651V60H83.6839ZM2.82592 2.30792H30.5486V0H0.515625V43.846H2.82592V2.30792Z" fill="#1A182B"/>
</g>
<defs>
<clipPath id="clip0_123_5094">
<rect width="83.1683" height="60" fill="white" transform="translate(0.515625)"/>
</clipPath>
</defs>
</svg>
